<svg xmlns="http://www.w3.org/2000/svg" xmlns:xlink="http://www.w3.org/1999/xlink" width="150" zoomAndPan="magnify" viewBox="0 0 112.5 307.500004" height="410" preserveAspectRatio="xMidYMid meet" version="1.0"><defs><clipPath id="fc91fbf04b"><path d="M 3 0.429688 L 108.890625 0.429688 L 108.890625 306.570312 L 3 306.570312 Z M 3 0.429688 " clip-rule="nonzero"/></clipPath><clipPath id="641b1b9a18"><path d="M 28 0.429688 L 43 0.429688 L 43 114 L 28 114 Z M 28 0.429688 " clip-rule="nonzero"/></clipPath></defs><g clip-path="url(#fc91fbf04b)"><path fill="#d1c1f3" d="M 108.523438 247.152344 C 108.269531 237.640625 107.449219 228.25 106.21875 218.949219 C 104.984375 209.640625 103.332031 200.441406 101.195312 191.203125 C 100.617188 188.875 100.101562 186.585938 99.449219 184.21875 L 98.980469 182.457031 L 98.742188 181.574219 L 98.429688 180.53125 L 97.117188 176.320312 C 96.890625 175.582031 96.675781 174.984375 96.460938 174.394531 L 95.8125 172.59375 C 95.375 171.414062 94.9375 170.152344 94.5 169.035156 C 93.636719 166.867188 92.765625 164.601562 91.898438 162.507812 C 88.433594 154.105469 84.960938 146.355469 81.613281 138.761719 C 78.269531 131.1875 75.023438 123.78125 72.136719 116.671875 C 71.433594 114.914062 70.675781 113.105469 70.066406 111.433594 C 69.445312 109.75 68.722656 107.96875 68.226562 106.421875 C 67.6875 104.84375 67.070312 103.160156 66.722656 101.851562 L 66.09375 99.761719 L 65.753906 98.242188 C 65.675781 97.921875 65.0625 97.765625 64.394531 97.894531 L 37 103.300781 C 36.988281 103.160156 36.976562 103.019531 36.964844 102.878906 C 36.9375 102.402344 36.921875 101.925781 36.914062 101.4375 C 36.90625 100.757812 36.902344 100.089844 36.875 99.375 C 36.878906 98.21875 36.929688 96.902344 36.960938 95.589844 C 37.070312 91.347656 37.226562 86.570312 37.484375 81.523438 C 37.558594 80.140625 37.632812 78.757812 37.722656 77.339844 C 37.757812 76.789062 37.796875 76.226562 37.835938 75.671875 C 37.929688 74.289062 38.027344 72.902344 38.140625 71.496094 C 38.195312 70.800781 38.25 70.101562 38.3125 69.398438 C 38.410156 68.21875 38.515625 67.03125 38.625 65.84375 C 38.703125 64.984375 38.78125 64.128906 38.867188 63.265625 C 39.011719 61.796875 39.164062 60.324219 39.324219 58.855469 C 39.367188 58.46875 39.40625 58.082031 39.449219 57.695312 C 42.558594 30.402344 44.1875 1.136719 41.035156 0.785156 C 37.890625 0.429688 32.871094 29.253906 29.753906 56.617188 C 29.523438 58.675781 29.339844 60.746094 29.175781 62.820312 C 29.136719 63.316406 29.105469 63.808594 29.070312 64.300781 C 28.949219 65.964844 28.855469 67.621094 28.78125 69.273438 C 28.761719 69.71875 28.738281 70.160156 28.722656 70.601562 C 28.648438 72.515625 28.605469 74.40625 28.597656 76.277344 C 28.59375 76.425781 28.589844 76.574219 28.589844 76.71875 C 28.589844 76.957031 28.578125 77.199219 28.582031 77.433594 C 28.582031 79.285156 28.625 81.101562 28.6875 82.882812 C 28.6875 82.917969 28.6875 82.957031 28.6875 82.992188 C 28.734375 84.183594 28.792969 85.351562 28.859375 86.5 C 28.894531 87.078125 28.933594 87.640625 28.972656 88.207031 C 29.023438 88.953125 29.082031 89.683594 29.144531 90.410156 C 29.226562 91.375 29.316406 92.308594 29.414062 93.230469 C 29.464844 93.699219 29.511719 94.179688 29.566406 94.636719 C 29.578125 94.761719 29.59375 94.875 29.609375 95 C 29.648438 95.3125 29.675781 95.65625 29.71875 95.964844 C 29.894531 97.332031 30.058594 98.597656 30.296875 99.882812 C 30.585938 101.210938 30.875 102.457031 31.160156 103.617188 C 31.242188 103.863281 31.324219 104.09375 31.40625 104.332031 C 31.414062 104.351562 31.417969 104.378906 31.421875 104.398438 C 31.425781 104.398438 31.425781 104.402344 31.425781 104.402344 L 4.007812 109.816406 C 3.339844 109.945312 2.976562 110.867188 3.203125 111.875 C 3.550781 113.398438 3.910156 114.96875 4.28125 116.449219 L 5.433594 120.367188 C 6.203125 123.082031 7.019531 125.320312 7.828125 127.691406 C 8.632812 130.117188 9.476562 132.203125 10.304688 134.433594 C 11.136719 136.679688 11.988281 138.722656 12.835938 140.839844 C 16.226562 149.199219 19.695312 157.082031 23.09375 164.777344 C 26.480469 172.457031 29.824219 179.949219 32.71875 186.980469 L 34.757812 192.082031 C 35.078125 192.910156 35.316406 193.625 35.605469 194.402344 L 36.023438 195.542969 C 36.167969 195.933594 36.308594 196.316406 36.378906 196.582031 L 36.933594 198.34375 L 37.078125 198.796875 L 37.246094 199.429688 L 37.582031 200.691406 C 38.046875 202.351562 38.441406 204.136719 38.875 205.855469 C 42.101562 219.964844 44.144531 234.753906 44.546875 249.105469 C 44.726562 256.285156 44.617188 263.414062 43.996094 270.351562 C 43.320312 277.265625 42.359375 284.066406 40.824219 290.550781 C 40.710938 291.085938 41.15625 291.652344 41.816406 291.8125 L 101.632812 306.367188 C 102.292969 306.527344 102.96875 306.011719 103.140625 305.214844 C 105.445312 295.4375 106.839844 285.667969 107.757812 275.964844 C 108.621094 266.261719 108.777344 256.664062 108.523438 247.152344 Z M 36.8125 112.578125 C 36.804688 112.601562 36.792969 112.617188 36.785156 112.636719 C 36.730469 112.738281 36.671875 112.808594 36.601562 112.835938 C 36.597656 112.835938 36.597656 112.839844 36.59375 112.839844 C 36.59375 112.839844 36.59375 112.839844 36.589844 112.839844 C 36.496094 112.871094 36.375 112.824219 36.238281 112.726562 C 36.199219 112.699219 36.152344 112.652344 36.109375 112.613281 C 36 112.519531 35.882812 112.398438 35.753906 112.234375 C 35.695312 112.160156 35.632812 112.078125 35.566406 111.992188 C 35.445312 111.820312 35.308594 111.609375 35.167969 111.386719 C 35.078125 111.246094 34.992188 111.113281 34.898438 110.953125 C 34.878906 110.917969 34.855469 110.875 34.839844 110.84375 C 35.125 110.609375 35.464844 110.425781 35.84375 110.316406 C 36.226562 110.207031 36.609375 110.175781 36.980469 110.214844 C 36.980469 110.214844 36.980469 110.21875 36.980469 110.21875 C 36.976562 110.21875 36.976562 110.21875 36.972656 110.21875 C 37.03125 111.40625 36.976562 112.195312 36.8125 112.578125 Z M 31.269531 101.488281 C 31.195312 101.171875 31.128906 100.863281 31.050781 100.539062 C 30.933594 100.011719 30.824219 99.476562 30.742188 98.949219 C 30.703125 98.710938 30.667969 98.472656 30.632812 98.226562 C 30.628906 98.210938 30.628906 98.191406 30.625 98.171875 C 30.523438 97.445312 30.421875 96.6875 30.316406 95.910156 C 29.917969 92.804688 29.585938 89.28125 29.386719 85.367188 C 29.382812 85.226562 29.375 85.082031 29.367188 84.941406 C 29.332031 84.167969 29.300781 83.378906 29.273438 82.574219 C 29.265625 82.320312 29.253906 82.0625 29.25 81.804688 C 29.226562 81 29.210938 80.179688 29.199219 79.347656 C 29.199219 79.160156 29.195312 78.980469 29.191406 78.789062 C 29.164062 75.546875 29.226562 72.089844 29.410156 68.4375 C 29.414062 68.425781 29.414062 68.414062 29.414062 68.40625 C 29.601562 64.699219 29.910156 60.789062 30.371094 56.6875 C 34.464844 20.75 39.234375 1.210938 40.96875 1.402344 C 42.695312 1.59375 42.925781 21.753906 38.835938 57.632812 C 38.613281 59.621094 38.417969 61.546875 38.234375 63.4375 C 38.195312 63.804688 38.160156 64.171875 38.125 64.539062 C 37.953125 66.359375 37.800781 68.128906 37.660156 69.851562 C 37.640625 70.101562 37.621094 70.347656 37.601562 70.597656 C 37.179688 75.921875 36.898438 80.796875 36.710938 85.171875 C 36.695312 85.484375 36.6875 85.78125 36.671875 86.089844 C 36.671875 86.097656 36.671875 86.105469 36.671875 86.117188 C 36.558594 88.824219 36.476562 91.34375 36.414062 93.664062 C 36.367188 95.378906 36.324219 97.023438 36.285156 98.519531 C 36.285156 98.546875 36.285156 98.570312 36.285156 98.59375 C 36.277344 99.050781 36.269531 99.488281 36.296875 99.882812 C 36.359375 101.136719 36.304688 102.304688 36.410156 103.414062 L 36.441406 103.410156 C 36.441406 103.410156 36.441406 103.410156 36.441406 103.414062 L 31.996094 104.289062 C 31.988281 104.269531 31.984375 104.253906 31.976562 104.234375 C 31.824219 103.78125 31.699219 103.277344 31.574219 102.769531 C 31.542969 102.640625 31.511719 102.523438 31.476562 102.390625 C 31.414062 102.109375 31.339844 101.792969 31.269531 101.488281 Z M 37.636719 115.921875 C 36.105469 116.453125 34.421875 115.613281 33.890625 114.042969 C 33.585938 113.019531 33.832031 111.972656 34.449219 111.230469 C 34.464844 111.257812 34.480469 111.273438 34.496094 111.300781 C 34.714844 111.65625 34.925781 111.964844 35.125 112.238281 C 35.136719 112.253906 35.152344 112.273438 35.164062 112.289062 C 35.574219 112.835938 35.941406 113.195312 36.261719 113.347656 C 36.296875 113.367188 36.328125 113.378906 36.359375 113.390625 C 36.507812 113.445312 36.652344 113.472656 36.777344 113.429688 C 36.777344 113.429688 36.78125 113.429688 36.78125 113.429688 C 36.785156 113.429688 36.785156 113.421875 36.789062 113.421875 C 36.902344 113.378906 37 113.285156 37.085938 113.160156 C 37.109375 113.125 37.132812 113.085938 37.15625 113.042969 C 37.230469 112.90625 37.296875 112.738281 37.347656 112.53125 C 37.351562 112.511719 37.359375 112.5 37.363281 112.476562 C 37.414062 112.246094 37.449219 111.960938 37.476562 111.652344 C 37.484375 111.558594 37.488281 111.460938 37.492188 111.359375 C 37.503906 111.140625 37.511719 110.898438 37.511719 110.644531 C 37.511719 110.53125 37.519531 110.441406 37.515625 110.324219 C 37.515625 110.324219 37.511719 110.324219 37.507812 110.324219 C 37.507812 110.320312 37.507812 110.320312 37.507812 110.316406 C 38.425781 110.582031 39.1875 111.273438 39.472656 112.230469 C 39.984375 113.738281 39.167969 115.386719 37.636719 115.921875 Z M 37.636719 115.921875 " fill-opacity="1" fill-rule="nonzero"/></g><g clip-path="url(#641b1b9a18)"><path fill="#d8d8d8" d="M 39.449219 57.695312 C 39.40625 58.082031 39.367188 58.46875 39.324219 58.855469 C 39.167969 60.324219 39.011719 61.792969 38.867188 63.265625 C 38.78125 64.128906 38.703125 64.984375 38.625 65.84375 C 38.515625 67.03125 38.410156 68.214844 38.3125 69.398438 C 38.25 70.101562 38.195312 70.800781 38.140625 71.496094 C 38.027344 72.902344 37.929688 74.289062 37.835938 75.671875 C 37.796875 76.226562 37.757812 76.785156 37.722656 77.339844 C 37.632812 78.757812 37.558594 80.140625 37.484375 81.523438 C 37.226562 86.570312 37.070312 91.347656 36.960938 95.589844 C 36.929688 96.902344 36.878906 98.21875 36.875 99.375 C 36.902344 100.089844 36.90625 100.757812 36.914062 101.4375 C 36.921875 101.925781 36.9375 102.402344 36.964844 102.878906 C 36.976562 103.019531 36.988281 103.160156 37 103.300781 L 36.441406 103.410156 C 36.441406 103.410156 36.441406 103.410156 36.441406 103.40625 L 36.410156 103.414062 C 36.304688 102.304688 36.359375 101.136719 36.296875 99.882812 C 36.269531 99.488281 36.277344 99.050781 36.285156 98.59375 C 36.285156 98.570312 36.285156 98.546875 36.285156 98.519531 C 36.324219 97.023438 36.367188 95.378906 36.414062 93.664062 C 36.476562 91.34375 36.558594 88.824219 36.671875 86.117188 C 36.671875 86.105469 36.671875 86.097656 36.671875 86.089844 C 36.6875 85.78125 36.695312 85.484375 36.710938 85.171875 C 36.898438 80.796875 37.179688 75.921875 37.601562 70.597656 C 37.621094 70.347656 37.640625 70.101562 37.660156 69.851562 C 37.800781 68.128906 37.953125 66.359375 38.125 64.539062 C 38.160156 64.171875 38.195312 63.804688 38.234375 63.4375 C 38.417969 61.546875 38.613281 59.621094 38.835938 57.632812 C 42.925781 21.753906 42.695312 1.59375 40.96875 1.402344 C 39.234375 1.210938 34.464844 20.75 30.371094 56.6875 C 29.910156 60.789062 29.601562 64.699219 29.414062 68.40625 C 29.414062 68.414062 29.414062 68.425781 29.410156 68.4375 C 29.230469 72.089844 29.160156 75.546875 29.191406 78.789062 C 29.195312 78.980469 29.199219 79.160156 29.199219 79.347656 C 29.210938 80.179688 29.226562 81 29.25 81.804688 C 29.253906 82.0625 29.265625 82.320312 29.273438 82.574219 C 29.300781 83.378906 29.332031 84.167969 29.367188 84.941406 C 29.375 85.082031 29.382812 85.226562 29.386719 85.367188 C 29.445312 86.484375 29.515625 87.558594 29.589844 88.609375 C 29.617188 88.984375 29.648438 89.339844 29.679688 89.707031 C 29.730469 90.363281 29.785156 91.011719 29.847656 91.644531 C 29.886719 92.0625 29.925781 92.476562 29.96875 92.878906 C 30.027344 93.433594 30.085938 93.972656 30.148438 94.5 C 30.195312 94.902344 30.242188 95.308594 30.289062 95.695312 C 30.398438 96.546875 30.507812 97.382812 30.625 98.171875 C 30.628906 98.191406 30.628906 98.210938 30.632812 98.226562 C 30.667969 98.46875 30.703125 98.710938 30.742188 98.949219 C 30.824219 99.476562 30.933594 100.011719 31.050781 100.539062 C 31.128906 100.863281 31.195312 101.171875 31.265625 101.488281 C 31.363281 101.929688 31.472656 102.355469 31.574219 102.769531 C 31.699219 103.277344 31.824219 103.78125 31.976562 104.234375 C 31.984375 104.253906 31.988281 104.269531 31.996094 104.289062 L 31.992188 104.289062 C 32.054688 104.464844 32.113281 104.613281 32.171875 104.78125 C 32.355469 105.292969 32.539062 105.796875 32.714844 106.257812 C 32.734375 106.308594 32.753906 106.367188 32.773438 106.417969 C 32.972656 106.945312 33.160156 107.421875 33.347656 107.882812 C 33.386719 107.976562 33.429688 108.09375 33.464844 108.1875 C 33.503906 108.273438 33.542969 108.339844 33.582031 108.425781 C 33.824219 108.953125 34.0625 109.429688 34.292969 109.859375 C 34.480469 110.214844 34.667969 110.554688 34.832031 110.847656 C 34.835938 110.847656 34.835938 110.84375 34.839844 110.84375 C 34.855469 110.875 34.878906 110.917969 34.898438 110.953125 C 34.992188 111.113281 35.078125 111.246094 35.167969 111.386719 C 35.308594 111.613281 35.441406 111.816406 35.566406 111.992188 C 35.632812 112.078125 35.695312 112.160156 35.753906 112.234375 C 35.882812 112.398438 36 112.519531 36.109375 112.613281 C 36.152344 112.652344 36.199219 112.699219 36.238281 112.726562 C 36.375 112.820312 36.496094 112.871094 36.589844 112.839844 C 36.59375 112.839844 36.59375 112.839844 36.59375 112.839844 C 36.597656 112.839844 36.597656 112.835938 36.601562 112.835938 C 36.671875 112.808594 36.730469 112.738281 36.785156 112.636719 C 36.792969 112.617188 36.804688 112.601562 36.8125 112.578125 C 36.976562 112.195312 37.03125 111.40625 36.972656 110.21875 C 36.976562 110.21875 36.976562 110.21875 36.980469 110.21875 C 36.980469 110.21875 36.980469 110.214844 36.980469 110.214844 C 37.160156 110.230469 37.335938 110.265625 37.507812 110.316406 C 37.507812 110.320312 37.507812 110.320312 37.507812 110.324219 C 37.511719 110.324219 37.515625 110.324219 37.515625 110.324219 C 37.519531 110.441406 37.511719 110.53125 37.511719 110.644531 C 37.507812 110.898438 37.503906 111.140625 37.492188 111.359375 C 37.488281 111.460938 37.484375 111.558594 37.476562 111.652344 C 37.449219 111.960938 37.414062 112.246094 37.363281 112.476562 C 37.359375 112.5 37.351562 112.511719 37.347656 112.53125 C 37.296875 112.738281 37.230469 112.90625 37.15625 113.042969 C 37.132812 113.085938 37.109375 113.125 37.085938 113.160156 C 37 113.285156 36.902344 113.382812 36.789062 113.421875 C 36.785156 113.421875 36.785156 113.429688 36.78125 113.429688 C 36.78125 113.429688 36.777344 113.429688 36.777344 113.429688 C 36.652344 113.46875 36.507812 113.449219 36.359375 113.390625 C 36.328125 113.378906 36.296875 113.363281 36.261719 113.347656 C 35.941406 113.195312 35.574219 112.835938 35.164062 112.289062 C 35.152344 112.273438 35.136719 112.253906 35.125 112.238281 C 34.925781 111.96875 34.714844 111.652344 34.496094 111.300781 C 34.480469 111.273438 34.464844 111.257812 34.449219 111.230469 C 34.449219 111.230469 34.449219 111.230469 34.445312 111.226562 C 34.441406 111.214844 34.433594 111.203125 34.425781 111.191406 C 34.210938 110.832031 33.984375 110.4375 33.75 110.003906 C 33.726562 109.960938 33.703125 109.910156 33.675781 109.867188 C 33.492188 109.519531 33.300781 109.132812 33.113281 108.734375 C 33.054688 108.613281 32.996094 108.511719 32.9375 108.382812 C 32.902344 108.304688 32.867188 108.207031 32.835938 108.128906 C 32.40625 107.085938 31.960938 105.90625 31.496094 104.601562 C 31.472656 104.53125 31.449219 104.472656 31.425781 104.402344 C 31.425781 104.402344 31.425781 104.398438 31.421875 104.398438 C 31.417969 104.378906 31.414062 104.351562 31.40625 104.332031 C 31.324219 104.09375 31.242188 103.863281 31.160156 103.617188 C 30.875 102.457031 30.585938 101.210938 30.296875 99.882812 C 30.058594 98.597656 29.894531 97.332031 29.71875 95.964844 C 29.675781 95.65625 29.648438 95.3125 29.609375 95 C 29.59375 94.875 29.578125 94.761719 29.5625 94.636719 C 29.511719 94.179688 29.464844 93.699219 29.414062 93.230469 C 29.316406 92.3125 29.226562 91.371094 29.144531 90.410156 C 29.082031 89.683594 29.023438 88.953125 28.972656 88.207031 C 28.933594 87.640625 28.894531 87.074219 28.859375 86.5 C 28.792969 85.351562 28.734375 84.183594 28.6875 82.992188 C 28.6875 82.957031 28.6875 82.917969 28.6875 82.882812 C 28.625 81.101562 28.582031 79.285156 28.582031 77.433594 C 28.578125 77.199219 28.589844 76.957031 28.589844 76.71875 C 28.589844 76.574219 28.59375 76.425781 28.597656 76.277344 C 28.605469 74.410156 28.652344 72.511719 28.722656 70.601562 C 28.738281 70.160156 28.757812 69.714844 28.78125 69.273438 C 28.851562 67.621094 28.953125 65.960938 29.070312 64.300781 C 29.105469 63.808594 29.136719 63.316406 29.175781 62.820312 C 29.339844 60.746094 29.523438 58.675781 29.753906 56.617188 C 32.871094 29.253906 37.890625 0.429688 41.035156 0.785156 C 44.1875 1.136719 42.558594 30.402344 39.449219 57.695312 Z M 39.449219 57.695312 " fill-opacity="1" fill-rule="nonzero"/></g></svg>