<svg xmlns="http://www.w3.org/2000/svg" xmlns:xlink="http://www.w3.org/1999/xlink" width="150" zoomAndPan="magnify" viewBox="0 0 112.5 307.500004" height="410" preserveAspectRatio="xMidYMid meet" version="1.0"><defs><clipPath id="f85cf08eec"><path d="M 1 1 L 111.265625 1 L 111.265625 306.570312 L 1 306.570312 Z M 1 1 " clip-rule="nonzero"/></clipPath></defs><g clip-path="url(#f85cf08eec)"><path fill="#d1c1f3" d="M 111.007812 270.660156 L 105.207031 261.328125 C 104.257812 259.765625 103.21875 258.253906 102.335938 256.644531 L 99.730469 251.796875 C 98 248.558594 96.214844 245.351562 94.511719 242.097656 L 89.878906 232.078125 L 87.554688 227.074219 L 85.542969 221.925781 L 81.488281 211.636719 L 78.054688 201.109375 L 76.324219 195.847656 C 75.800781 194.078125 75.375 192.273438 74.894531 190.492188 L 72.0625 179.769531 C 71.238281 176.167969 70.582031 172.523438 69.824219 168.902344 L 68.710938 163.464844 C 68.3125 161.660156 68.15625 159.808594 67.863281 157.980469 L 66.28125 146.992188 C 64.769531 132.277344 63.71875 117.460938 64.40625 102.683594 C 64.425781 102.082031 63.898438 101.574219 63.230469 101.550781 L 35.792969 100.601562 C 36.125 98.4375 36.445312 95.984375 36.746094 93.296875 C 36.824219 92.699219 36.894531 92.101562 37.011719 91.484375 C 37.011719 91.480469 37.011719 91.472656 37.015625 91.46875 C 37.261719 89.945312 37.503906 88.355469 37.742188 86.710938 C 37.785156 86.421875 37.828125 86.136719 37.871094 85.847656 C 37.984375 85.050781 38.097656 84.25 38.210938 83.433594 C 38.25 83.148438 38.289062 82.851562 38.328125 82.5625 C 38.585938 80.644531 38.839844 78.679688 39.089844 76.664062 C 39.148438 76.175781 39.210938 75.699219 39.273438 75.207031 C 39.640625 73.074219 40.003906 70.894531 40.367188 68.699219 C 40.390625 68.578125 40.410156 68.460938 40.429688 68.335938 C 40.464844 68.113281 40.503906 67.886719 40.539062 67.660156 C 41.1875 63.71875 41.832031 59.71875 42.453125 55.75 C 43.132812 52.5 43.792969 49.222656 44.417969 45.96875 C 44.722656 44.339844 45.03125 42.71875 45.332031 41.113281 C 45.617188 39.503906 45.898438 37.90625 46.308594 36.363281 C 47.820312 30.167969 49.015625 24.242188 50.128906 19.140625 C 52.71875 9.054688 53.890625 1.886719 52.4375 1.332031 C 50.984375 0.773438 47.535156 7.164062 43.320312 17.023438 C 41.402344 22.003906 39.566406 27.925781 37.605469 34.207031 C 37.085938 35.769531 36.707031 37.394531 36.332031 39.035156 C 35.957031 40.675781 35.578125 42.332031 35.199219 43.996094 C 34.449219 47.328125 33.71875 50.699219 33.019531 54.050781 C 32.699219 56.070312 32.402344 58.105469 32.113281 60.136719 C 32.058594 60.546875 32 60.953125 31.945312 61.359375 C 31.683594 63.246094 31.4375 65.121094 31.203125 66.984375 C 31.203125 67.011719 31.199219 67.035156 31.195312 67.0625 C 31.1875 67.105469 31.183594 67.148438 31.179688 67.195312 C 31.054688 68.183594 30.933594 69.167969 30.820312 70.144531 C 30.6875 71.246094 30.550781 72.359375 30.417969 73.441406 C 30.40625 73.609375 30.402344 73.765625 30.390625 73.929688 C 30.382812 74.03125 30.367188 74.132812 30.359375 74.234375 C 29.988281 80.800781 29.753906 86.996094 29.695312 92.324219 C 29.710938 92.683594 29.726562 93.027344 29.746094 93.378906 C 29.757812 93.699219 29.769531 94.007812 29.789062 94.320312 C 29.902344 96.542969 30.046875 98.574219 30.214844 100.40625 L 2.773438 99.457031 C 2.105469 99.433594 1.546875 100.007812 1.527344 100.742188 C 0.738281 118.699219 1.933594 136.648438 3.816406 154.476562 L 5.722656 167.796875 C 6.078125 170.011719 6.296875 172.246094 6.765625 174.441406 L 8.09375 181.039062 C 9.003906 185.433594 9.828125 189.84375 10.832031 194.21875 L 14.253906 207.246094 C 14.839844 209.410156 15.371094 211.59375 16.011719 213.746094 L 18.089844 220.15625 L 22.300781 232.964844 L 27.226562 245.535156 L 29.703125 251.8125 L 32.527344 257.953125 L 38.222656 270.214844 C 40.300781 274.21875 42.480469 278.175781 44.617188 282.152344 L 47.839844 288.105469 C 48.9375 290.078125 50.195312 291.964844 51.367188 293.894531 L 58.546875 305.40625 C 58.941406 306.035156 59.707031 306.242188 60.265625 305.871094 L 110.570312 272.253906 C 111.125 271.882812 111.320312 271.167969 111.007812 270.660156 Z M 30.304688 91.066406 C 30.3125 90.179688 30.335938 89.246094 30.359375 88.300781 C 30.378906 87.546875 30.398438 86.769531 30.425781 85.976562 C 30.445312 85.34375 30.464844 84.699219 30.488281 84.042969 C 30.515625 83.351562 30.539062 82.65625 30.570312 81.9375 C 30.625 80.601562 30.679688 79.246094 30.753906 77.816406 C 30.78125 77.386719 30.800781 76.933594 30.820312 76.492188 C 30.980469 74.257812 31.203125 71.929688 31.488281 69.492188 C 31.601562 68.570312 31.714844 67.679688 31.832031 66.730469 C 31.992188 65.535156 32.160156 64.269531 32.324219 63.027344 C 32.71875 60.1875 33.15625 57.238281 33.617188 54.160156 C 37.023438 36.523438 41.34375 23.207031 45.046875 14.527344 C 48.875 5.875 51.441406 1.605469 52.242188 1.90625 C 53.042969 2.207031 52.445312 7.207031 50.253906 16.203125 C 48.183594 25.246094 45.175781 38.488281 41.855469 55.644531 C 41.847656 55.699219 41.839844 55.75 41.832031 55.808594 C 40.972656 60.875 40.222656 65.578125 39.546875 69.984375 C 38.929688 73.753906 38.386719 77.261719 37.984375 80.535156 C 37.472656 84.109375 37.015625 87.375 36.609375 90.320312 C 36.480469 91.132812 36.355469 91.925781 36.226562 92.6875 C 36.105469 93.710938 35.988281 94.675781 35.875 95.609375 C 35.617188 97.457031 35.378906 99.085938 35.152344 100.578125 L 30.800781 100.425781 C 30.746094 99.832031 30.691406 99.253906 30.644531 98.601562 C 30.640625 98.59375 30.640625 98.582031 30.640625 98.574219 C 30.570312 97.667969 30.507812 96.683594 30.445312 95.667969 C 30.433594 95.488281 30.425781 95.316406 30.414062 95.136719 C 30.324219 94.003906 30.292969 92.816406 30.296875 91.5625 C 30.300781 91.398438 30.300781 91.230469 30.304688 91.066406 Z M 33.921875 107.28125 C 33.921875 107.285156 33.921875 107.289062 33.917969 107.292969 C 33.910156 107.289062 33.902344 107.28125 33.894531 107.277344 C 33.582031 108.421875 33.285156 109.152344 33.015625 109.453125 C 32.921875 109.535156 32.832031 109.621094 32.734375 109.621094 C 32.636719 109.621094 32.535156 109.539062 32.4375 109.40625 C 32.410156 109.371094 32.382812 109.3125 32.351562 109.261719 C 32.28125 109.140625 32.207031 108.992188 32.136719 108.804688 C 32.105469 108.71875 32.070312 108.621094 32.039062 108.519531 C 31.976562 108.324219 31.914062 108.089844 31.847656 107.839844 C 31.808594 107.683594 31.769531 107.539062 31.730469 107.359375 C 31.726562 107.324219 31.71875 107.277344 31.710938 107.242188 C 32.050781 107.109375 32.421875 107.035156 32.8125 107.039062 C 33.207031 107.046875 33.582031 107.132812 33.921875 107.28125 Z M 32.710938 112.808594 C 31.117188 112.816406 29.765625 111.519531 29.84375 109.90625 C 29.871094 108.882812 30.421875 107.996094 31.226562 107.488281 C 31.234375 107.507812 31.238281 107.523438 31.242188 107.542969 C 31.339844 107.9375 31.441406 108.28125 31.542969 108.59375 C 31.554688 108.625 31.566406 108.660156 31.578125 108.695312 C 31.792969 109.3125 32.023438 109.75 32.265625 109.992188 C 32.292969 110.019531 32.320312 110.042969 32.347656 110.0625 C 32.464844 110.160156 32.589844 110.226562 32.71875 110.226562 C 32.722656 110.226562 32.726562 110.222656 32.730469 110.222656 C 32.851562 110.21875 32.972656 110.160156 33.09375 110.070312 C 33.128906 110.046875 33.160156 110.019531 33.191406 109.988281 C 33.3125 109.875 33.429688 109.734375 33.546875 109.542969 C 33.550781 109.535156 33.554688 109.53125 33.558594 109.527344 C 33.683594 109.320312 33.808594 109.058594 33.929688 108.761719 C 33.960938 108.6875 33.992188 108.609375 34.023438 108.527344 C 34.101562 108.320312 34.183594 108.089844 34.265625 107.84375 C 34.300781 107.734375 34.335938 107.652344 34.371094 107.539062 C 34.367188 107.535156 34.367188 107.535156 34.363281 107.535156 C 34.363281 107.53125 34.363281 107.53125 34.363281 107.527344 C 35.140625 108.050781 35.640625 108.9375 35.609375 109.941406 C 35.535156 111.515625 34.304688 112.800781 32.710938 112.808594 Z M 32.710938 112.808594 " fill-opacity="1" fill-rule="nonzero"/></g><path fill="#d8d8d8" d="M 50.128906 19.140625 C 49.015625 24.242188 47.820312 30.167969 46.308594 36.363281 C 45.898438 37.90625 45.617188 39.503906 45.332031 41.113281 C 45.03125 42.71875 44.722656 44.339844 44.417969 45.96875 C 43.792969 49.222656 43.132812 52.5 42.453125 55.75 C 41.832031 59.71875 41.1875 63.71875 40.539062 67.660156 C 40.503906 67.886719 40.464844 68.113281 40.429688 68.335938 C 40.410156 68.460938 40.390625 68.578125 40.367188 68.699219 C 40.003906 70.894531 39.640625 73.074219 39.273438 75.207031 C 39.210938 75.699219 39.148438 76.175781 39.089844 76.664062 C 38.925781 77.945312 38.761719 79.242188 38.605469 80.488281 C 38.515625 81.1875 38.421875 81.875 38.328125 82.5625 C 38.289062 82.851562 38.25 83.148438 38.210938 83.433594 C 38.097656 84.25 37.984375 85.050781 37.871094 85.847656 C 37.828125 86.136719 37.785156 86.425781 37.742188 86.710938 C 37.503906 88.351562 37.261719 89.945312 37.015625 91.46875 C 37.011719 91.476562 37.011719 91.488281 37.007812 91.496094 C 36.894531 92.109375 36.824219 92.703125 36.746094 93.296875 C 36.445312 95.984375 36.125 98.4375 35.792969 100.601562 L 35.152344 100.578125 C 35.378906 99.085938 35.617188 97.457031 35.875 95.609375 C 35.988281 94.675781 36.105469 93.710938 36.226562 92.6875 C 36.355469 91.925781 36.480469 91.132812 36.609375 90.320312 C 37.015625 87.375 37.472656 84.109375 37.984375 80.535156 C 38.386719 77.261719 38.929688 73.753906 39.546875 69.984375 C 40.222656 65.578125 40.972656 60.875 41.832031 55.808594 C 41.839844 55.75 41.847656 55.699219 41.855469 55.644531 C 45.175781 38.488281 48.183594 25.246094 50.253906 16.203125 C 52.445312 7.207031 53.042969 2.207031 52.242188 1.90625 C 51.441406 1.605469 48.875 5.875 45.046875 14.527344 C 41.34375 23.207031 37.023438 36.523438 33.617188 54.160156 C 33.15625 57.238281 32.71875 60.1875 32.324219 63.027344 C 32.160156 64.269531 31.992188 65.535156 31.832031 66.730469 C 31.714844 67.679688 31.601562 68.570312 31.488281 69.492188 C 31.203125 71.929688 30.980469 74.257812 30.820312 76.492188 C 30.800781 76.933594 30.78125 77.386719 30.753906 77.816406 C 30.679688 79.246094 30.625 80.601562 30.570312 81.9375 C 30.539062 82.65625 30.515625 83.351562 30.488281 84.042969 C 30.464844 84.699219 30.445312 85.34375 30.425781 85.976562 C 30.398438 86.769531 30.378906 87.546875 30.359375 88.300781 C 30.335938 89.246094 30.3125 90.179688 30.304688 91.066406 C 30.300781 91.230469 30.300781 91.398438 30.296875 91.5625 C 30.292969 92.816406 30.324219 94.003906 30.414062 95.136719 C 30.425781 95.316406 30.433594 95.488281 30.445312 95.667969 C 30.507812 96.683594 30.570312 97.667969 30.640625 98.574219 C 30.640625 98.582031 30.640625 98.59375 30.644531 98.601562 C 30.691406 99.253906 30.746094 99.832031 30.800781 100.425781 L 30.792969 100.425781 C 30.816406 100.703125 30.84375 100.9375 30.871094 101.199219 C 30.890625 101.410156 30.910156 101.617188 30.933594 101.820312 C 30.988281 102.390625 31.050781 102.925781 31.113281 103.433594 C 31.140625 103.679688 31.171875 103.933594 31.199219 104.164062 C 31.273438 104.71875 31.347656 105.226562 31.421875 105.695312 C 31.460938 105.929688 31.5 106.140625 31.535156 106.351562 C 31.589844 106.660156 31.648438 106.980469 31.703125 107.242188 C 31.707031 107.242188 31.707031 107.242188 31.710938 107.242188 C 31.71875 107.277344 31.722656 107.324219 31.730469 107.359375 C 31.769531 107.535156 31.808594 107.6875 31.847656 107.839844 C 31.910156 108.09375 31.976562 108.324219 32.039062 108.519531 C 32.070312 108.621094 32.105469 108.71875 32.136719 108.804688 C 32.207031 108.992188 32.28125 109.140625 32.351562 109.261719 C 32.382812 109.3125 32.410156 109.371094 32.4375 109.410156 C 32.535156 109.539062 32.636719 109.617188 32.734375 109.621094 C 32.738281 109.621094 32.742188 109.617188 32.742188 109.617188 C 32.832031 109.617188 32.921875 109.558594 33.015625 109.453125 C 33.285156 109.152344 33.582031 108.421875 33.894531 107.277344 C 33.902344 107.28125 33.910156 107.289062 33.917969 107.292969 C 33.921875 107.289062 33.921875 107.285156 33.921875 107.28125 C 34.078125 107.347656 34.226562 107.433594 34.363281 107.527344 C 34.363281 107.53125 34.363281 107.53125 34.363281 107.535156 C 34.367188 107.535156 34.367188 107.535156 34.371094 107.539062 C 34.335938 107.652344 34.300781 107.734375 34.261719 107.84375 C 34.183594 108.085938 34.101562 108.320312 34.023438 108.527344 C 33.992188 108.609375 33.960938 108.6875 33.929688 108.761719 C 33.808594 109.054688 33.683594 109.320312 33.558594 109.527344 C 33.554688 109.53125 33.550781 109.535156 33.546875 109.542969 C 33.429688 109.734375 33.3125 109.875 33.191406 109.988281 C 33.160156 110.019531 33.128906 110.046875 33.09375 110.070312 C 32.972656 110.160156 32.851562 110.21875 32.730469 110.222656 C 32.726562 110.222656 32.722656 110.226562 32.71875 110.226562 C 32.589844 110.226562 32.464844 110.160156 32.347656 110.0625 C 32.320312 110.042969 32.292969 110.015625 32.265625 109.992188 C 32.023438 109.75 31.792969 109.3125 31.578125 108.695312 C 31.566406 108.660156 31.554688 108.625 31.542969 108.59375 C 31.441406 108.28125 31.339844 107.933594 31.242188 107.542969 C 31.238281 107.523438 31.234375 107.507812 31.226562 107.488281 C 31.226562 107.488281 31.226562 107.484375 31.226562 107.484375 C 31.226562 107.476562 31.222656 107.464844 31.222656 107.457031 C 30.824219 105.777344 30.484375 103.367188 30.222656 100.40625 L 30.214844 100.40625 C 30.101562 99.195312 30.007812 97.859375 29.917969 96.476562 C 29.910156 96.316406 29.898438 96.171875 29.886719 96.011719 C 29.859375 95.464844 29.824219 94.890625 29.789062 94.320312 C 29.773438 94.015625 29.757812 93.695312 29.746094 93.378906 C 29.726562 93.027344 29.710938 92.683594 29.695312 92.324219 C 29.753906 86.996094 29.988281 80.800781 30.359375 74.234375 C 30.367188 74.132812 30.382812 74.03125 30.390625 73.929688 C 30.402344 73.765625 30.40625 73.609375 30.417969 73.441406 C 30.550781 72.359375 30.683594 71.246094 30.820312 70.144531 C 30.9375 69.160156 31.058594 68.1875 31.179688 67.195312 C 31.183594 67.148438 31.1875 67.105469 31.195312 67.0625 C 31.199219 67.035156 31.203125 67.011719 31.203125 66.984375 C 31.449219 65.125 31.691406 63.242188 31.945312 61.359375 C 32 60.953125 32.054688 60.546875 32.113281 60.136719 C 32.402344 58.105469 32.699219 56.070312 33.019531 54.050781 C 33.71875 50.699219 34.449219 47.328125 35.199219 43.996094 C 35.578125 42.332031 35.957031 40.675781 36.332031 39.035156 C 36.707031 37.394531 37.085938 35.769531 37.605469 34.207031 C 39.566406 27.925781 41.402344 22.003906 43.320312 17.023438 C 47.535156 7.167969 50.984375 0.773438 52.4375 1.332031 C 53.890625 1.886719 52.71875 9.054688 50.128906 19.140625 Z M 50.128906 19.140625 " fill-opacity="1" fill-rule="nonzero"/></svg>