<svg xmlns="http://www.w3.org/2000/svg" xmlns:xlink="http://www.w3.org/1999/xlink" width="150" zoomAndPan="magnify" viewBox="0 0 112.5 307.500004" height="410" preserveAspectRatio="xMidYMid meet" version="1.0"><defs><clipPath id="a0b57c4459"><path d="M 14.519531 0.730469 L 97 0.730469 L 97 306.570312 L 14.519531 306.570312 Z M 14.519531 0.730469 " clip-rule="nonzero"/></clipPath><clipPath id="4adb7dbc4c"><path d="M 44 0.730469 L 60 0.730469 L 60 110 L 44 110 Z M 44 0.730469 " clip-rule="nonzero"/></clipPath></defs><g clip-path="url(#a0b57c4459)"><path fill="#ffde83" d="M 94.53125 145.773438 C 92.734375 128.820312 90.238281 112.5 87.84375 96.570312 C 87.746094 95.921875 87.140625 95.476562 86.492188 95.578125 L 59.839844 99.617188 C 59.777344 97.296875 59.636719 94.660156 59.421875 91.757812 C 59.398438 91.4375 59.371094 91.085938 59.34375 90.757812 C 59.3125 90.308594 59.273438 89.84375 59.238281 89.382812 C 59.160156 88.386719 59.074219 87.371094 58.984375 86.328125 C 58.925781 85.640625 58.863281 84.945312 58.796875 84.242188 C 58.761719 83.820312 58.722656 83.398438 58.683594 82.972656 C 57.90625 74.664062 56.851562 65.257812 55.835938 56.027344 C 55.792969 55.625 55.746094 55.222656 55.703125 54.820312 C 54.257812 41.757812 53.003906 28.328125 52.082031 18.101562 C 51.878906 15.546875 51.652344 13.191406 51.402344 11.089844 C 51.148438 8.992188 50.988281 7.15625 50.726562 5.632812 C 50.238281 2.582031 49.617188 0.792969 48.851562 0.753906 C 48.089844 0.71875 47.359375 2.449219 46.679688 5.507812 C 46.355469 7.039062 45.976562 8.898438 45.738281 11.035156 C 45.496094 13.167969 45.277344 15.574219 45.085938 18.199219 C 44.417969 28.683594 44.875 42.558594 46.347656 55.84375 C 46.449219 56.78125 46.566406 57.722656 46.675781 58.664062 C 46.691406 58.808594 46.710938 58.953125 46.726562 59.097656 C 48.183594 71.320312 50.378906 83.488281 52.5 92.796875 C 53.15625 95.636719 53.796875 98.203125 54.421875 100.4375 L 27.765625 104.476562 C 27.117188 104.574219 26.671875 105.183594 26.769531 105.835938 C 29.164062 121.730469 31.519531 137.242188 33.109375 152.300781 C 34.640625 167.214844 35.519531 181.988281 35.015625 196.28125 L 34.828125 201.636719 L 34.449219 206.917969 L 34.265625 209.558594 L 33.984375 212.160156 L 33.421875 217.355469 C 32.429688 224.171875 31.359375 230.949219 29.621094 237.347656 C 26.445312 250.320312 21.367188 262.085938 14.800781 272.597656 C 14.542969 273.035156 14.777344 273.679688 15.328125 274.039062 L 65.097656 306.507812 C 65.648438 306.871094 66.433594 306.601562 66.855469 305.914062 C 77.402344 289.1875 84.964844 270.925781 89.472656 252.644531 C 91.910156 243.492188 93.398438 234.34375 94.6875 225.238281 L 95.4375 218.4375 L 95.792969 215.035156 L 96.035156 211.65625 L 96.511719 204.898438 L 96.753906 198.191406 C 97.359375 180.300781 96.285156 162.863281 94.53125 145.773438 Z M 53.578125 94.839844 C 52.570312 90.578125 51.449219 85.386719 50.34375 79.257812 C 50.265625 78.828125 50.191406 78.390625 50.113281 77.953125 C 49.960938 77.074219 49.804688 76.164062 49.652344 75.246094 C 49.429688 73.90625 49.207031 72.53125 48.988281 71.109375 C 48.933594 70.765625 48.882812 70.425781 48.828125 70.078125 C 48.359375 66.980469 47.90625 63.703125 47.476562 60.253906 C 47.367188 59.375 47.261719 58.480469 47.152344 57.578125 C 47.082031 56.976562 47.011719 56.390625 46.941406 55.78125 C 45.054688 38.332031 45.09375 24.585938 45.894531 15.34375 C 46.101562 13.027344 46.28125 10.992188 46.550781 9.246094 C 46.828125 7.496094 47.105469 6.03125 47.371094 4.859375 C 47.910156 2.515625 48.414062 1.335938 48.835938 1.355469 C 49.253906 1.375 49.683594 2.597656 50.074219 4.949219 C 50.269531 6.125 50.457031 7.582031 50.625 9.3125 C 50.808594 11.042969 51.0625 13.050781 51.261719 15.316406 C 52.097656 24.402344 53.257812 37.710938 55.113281 54.886719 C 55.160156 55.3125 55.207031 55.71875 55.253906 56.136719 C 56.074219 63.503906 56.8125 70.152344 57.421875 76.0625 C 58.03125 82.027344 58.515625 87.230469 58.839844 91.632812 C 58.914062 92.679688 58.984375 93.710938 59.039062 94.667969 C 59.152344 96.523438 59.226562 98.199219 59.273438 99.699219 L 54.988281 100.351562 C 54.957031 100.246094 54.929688 100.152344 54.902344 100.046875 C 54.488281 98.503906 54.042969 96.773438 53.578125 94.839844 Z M 59.1875 106.433594 C 59.1875 106.4375 59.1875 106.4375 59.1875 106.441406 C 59.183594 106.441406 59.179688 106.441406 59.179688 106.4375 C 59.078125 107.59375 58.917969 108.339844 58.710938 108.679688 C 58.699219 108.695312 58.6875 108.710938 58.675781 108.726562 C 58.613281 108.816406 58.546875 108.875 58.472656 108.886719 C 58.46875 108.886719 58.46875 108.890625 58.464844 108.890625 C 58.390625 108.902344 58.308594 108.863281 58.21875 108.800781 C 58.199219 108.785156 58.175781 108.769531 58.15625 108.75 C 58.070312 108.671875 57.976562 108.566406 57.878906 108.421875 C 57.855469 108.386719 57.828125 108.339844 57.800781 108.296875 C 57.710938 108.152344 57.613281 107.984375 57.515625 107.785156 C 57.496094 107.75 57.480469 107.71875 57.460938 107.683594 C 57.332031 107.417969 57.195312 107.113281 57.054688 106.757812 C 57.050781 106.757812 57.050781 106.757812 57.050781 106.757812 C 57.359375 106.570312 57.707031 106.4375 58.085938 106.382812 C 58.464844 106.324219 58.835938 106.347656 59.1875 106.433594 Z M 58.929688 111.992188 C 57.382812 112.222656 55.945312 111.15625 55.710938 109.609375 C 55.5625 108.621094 55.941406 107.683594 56.632812 107.066406 C 56.640625 107.085938 56.648438 107.097656 56.65625 107.117188 C 56.820312 107.488281 56.980469 107.808594 57.136719 108.097656 C 57.148438 108.117188 57.164062 108.144531 57.175781 108.167969 C 57.492188 108.734375 57.792969 109.125 58.074219 109.320312 C 58.105469 109.34375 58.136719 109.363281 58.164062 109.378906 C 58.300781 109.453125 58.429688 109.5 58.554688 109.480469 C 58.558594 109.480469 58.5625 109.476562 58.5625 109.476562 C 58.683594 109.457031 58.792969 109.378906 58.894531 109.273438 C 58.921875 109.242188 58.945312 109.210938 58.972656 109.179688 C 59.066406 109.054688 59.15625 108.898438 59.238281 108.699219 C 59.242188 108.6875 59.246094 108.683594 59.25 108.671875 C 59.332031 108.453125 59.40625 108.183594 59.472656 107.882812 C 59.488281 107.800781 59.507812 107.710938 59.523438 107.621094 C 59.566406 107.410156 59.601562 107.179688 59.632812 106.933594 C 59.652344 106.820312 59.671875 106.734375 59.683594 106.613281 C 59.683594 106.613281 59.679688 106.613281 59.675781 106.613281 C 59.679688 106.609375 59.679688 106.609375 59.679688 106.609375 C 60.519531 106.992188 61.160156 107.777344 61.308594 108.765625 C 61.546875 110.316406 60.476562 111.761719 58.929688 111.992188 Z M 58.929688 111.992188 " fill-opacity="1" fill-rule="nonzero"/></g><g clip-path="url(#4adb7dbc4c)"><path fill="#d8d8d8" d="M 59.675781 106.613281 C 59.679688 106.613281 59.683594 106.613281 59.683594 106.613281 C 59.671875 106.734375 59.652344 106.820312 59.636719 106.933594 C 59.601562 107.175781 59.566406 107.410156 59.523438 107.621094 C 59.507812 107.710938 59.488281 107.800781 59.472656 107.882812 C 59.40625 108.183594 59.332031 108.453125 59.25 108.671875 C 59.246094 108.683594 59.242188 108.6875 59.238281 108.699219 C 59.15625 108.902344 59.066406 109.054688 58.972656 109.179688 C 58.945312 109.210938 58.921875 109.242188 58.894531 109.273438 C 58.792969 109.378906 58.683594 109.457031 58.5625 109.476562 C 58.5625 109.476562 58.558594 109.480469 58.554688 109.480469 C 58.429688 109.5 58.300781 109.453125 58.164062 109.378906 C 58.136719 109.363281 58.105469 109.34375 58.074219 109.320312 C 57.792969 109.125 57.492188 108.734375 57.175781 108.167969 C 57.164062 108.144531 57.148438 108.117188 57.136719 108.097656 C 56.980469 107.8125 56.820312 107.484375 56.65625 107.117188 C 56.648438 107.097656 56.640625 107.085938 56.632812 107.066406 C 56.632812 107.066406 56.632812 107.066406 56.628906 107.0625 C 56.625 107.054688 56.625 107.046875 56.621094 107.039062 C 56.453125 106.65625 56.28125 106.230469 56.109375 105.765625 C 56.109375 105.765625 56.109375 105.761719 56.105469 105.761719 C 55.574219 104.335938 55.007812 102.539062 54.429688 100.433594 L 54.421875 100.4375 C 53.796875 98.203125 53.15625 95.636719 52.5 92.796875 C 50.75 85.113281 48.957031 75.472656 47.558594 65.472656 C 47.535156 65.285156 47.507812 65.097656 47.480469 64.910156 C 47.375 64.148438 47.273438 63.390625 47.175781 62.625 C 47.019531 61.453125 46.867188 60.277344 46.726562 59.097656 C 46.710938 58.953125 46.691406 58.808594 46.675781 58.664062 C 46.566406 57.722656 46.449219 56.78125 46.347656 55.84375 C 44.875 42.558594 44.417969 28.683594 45.085938 18.199219 C 45.277344 15.574219 45.496094 13.167969 45.738281 11.035156 C 45.976562 8.898438 46.355469 7.039062 46.679688 5.507812 C 47.359375 2.449219 48.089844 0.71875 48.851562 0.753906 C 49.617188 0.792969 50.238281 2.582031 50.726562 5.632812 C 50.988281 7.15625 51.148438 8.992188 51.402344 11.089844 C 51.652344 13.191406 51.878906 15.546875 52.082031 18.101562 C 53.003906 28.328125 54.257812 41.757812 55.703125 54.820312 C 55.746094 55.222656 55.792969 55.625 55.835938 56.027344 C 56.851562 65.257812 57.90625 74.664062 58.683594 82.972656 C 58.722656 83.398438 58.761719 83.820312 58.796875 84.242188 C 58.863281 84.949219 58.925781 85.636719 58.984375 86.328125 C 59.074219 87.367188 59.160156 88.386719 59.238281 89.382812 C 59.273438 89.84375 59.3125 90.308594 59.34375 90.757812 C 59.371094 91.085938 59.398438 91.4375 59.421875 91.757812 C 59.636719 94.660156 59.777344 97.296875 59.839844 99.617188 L 59.273438 99.699219 C 59.226562 98.199219 59.152344 96.523438 59.039062 94.667969 C 58.984375 93.710938 58.914062 92.679688 58.839844 91.632812 C 58.515625 87.230469 58.03125 82.027344 57.421875 76.0625 C 56.8125 70.152344 56.074219 63.503906 55.253906 56.136719 C 55.207031 55.71875 55.160156 55.3125 55.113281 54.886719 C 53.257812 37.710938 52.097656 24.402344 51.261719 15.316406 C 51.0625 13.050781 50.808594 11.042969 50.625 9.3125 C 50.457031 7.582031 50.269531 6.125 50.074219 4.949219 C 49.683594 2.597656 49.253906 1.375 48.835938 1.355469 C 48.414062 1.335938 47.910156 2.515625 47.371094 4.859375 C 47.105469 6.03125 46.828125 7.496094 46.550781 9.246094 C 46.28125 10.992188 46.101562 13.027344 45.894531 15.34375 C 45.09375 24.585938 45.054688 38.332031 46.941406 55.78125 C 47.011719 56.390625 47.082031 56.976562 47.152344 57.578125 C 47.261719 58.480469 47.367188 59.375 47.476562 60.253906 C 47.90625 63.703125 48.359375 66.980469 48.828125 70.078125 C 48.882812 70.425781 48.933594 70.765625 48.988281 71.109375 C 49.207031 72.53125 49.429688 73.90625 49.652344 75.246094 C 49.804688 76.164062 49.960938 77.074219 50.113281 77.953125 C 50.191406 78.390625 50.265625 78.828125 50.34375 79.257812 C 51.449219 85.386719 52.570312 90.578125 53.578125 94.839844 C 54.042969 96.773438 54.488281 98.503906 54.902344 100.046875 C 54.929688 100.152344 54.957031 100.246094 54.988281 100.351562 L 54.984375 100.351562 C 55.035156 100.535156 55.082031 100.691406 55.128906 100.867188 C 55.25 101.296875 55.371094 101.71875 55.488281 102.113281 C 55.515625 102.210938 55.546875 102.320312 55.578125 102.417969 C 55.746094 102.984375 55.910156 103.515625 56.070312 104.007812 C 56.085938 104.0625 56.101562 104.113281 56.121094 104.164062 C 56.335938 104.828125 56.539062 105.398438 56.734375 105.921875 C 56.839844 106.214844 56.949219 106.507812 57.050781 106.757812 C 57.050781 106.757812 57.050781 106.757812 57.054688 106.757812 C 57.195312 107.113281 57.332031 107.417969 57.460938 107.683594 C 57.480469 107.71875 57.496094 107.75 57.515625 107.785156 C 57.613281 107.984375 57.710938 108.152344 57.800781 108.296875 C 57.828125 108.339844 57.855469 108.386719 57.878906 108.421875 C 57.976562 108.566406 58.070312 108.671875 58.15625 108.75 C 58.175781 108.769531 58.199219 108.785156 58.21875 108.800781 C 58.308594 108.863281 58.390625 108.902344 58.464844 108.890625 C 58.46875 108.890625 58.472656 108.886719 58.472656 108.886719 C 58.546875 108.875 58.613281 108.816406 58.675781 108.726562 C 58.6875 108.710938 58.699219 108.695312 58.710938 108.679688 C 58.917969 108.339844 59.078125 107.59375 59.179688 106.4375 C 59.179688 106.441406 59.183594 106.441406 59.1875 106.441406 C 59.1875 106.4375 59.1875 106.4375 59.1875 106.433594 C 59.355469 106.476562 59.519531 106.535156 59.679688 106.609375 C 59.679688 106.609375 59.679688 106.609375 59.675781 106.613281 Z M 59.675781 106.613281 " fill-opacity="1" fill-rule="nonzero"/></g></svg>