<svg xmlns="http://www.w3.org/2000/svg" xmlns:xlink="http://www.w3.org/1999/xlink" width="150" zoomAndPan="magnify" viewBox="0 0 112.5 307.500004" height="410" preserveAspectRatio="xMidYMid meet" version="1.0"><defs><clipPath id="6d6203425f"><path d="M 10.699219 0.429688 L 101 0.429688 L 101 306.570312 L 10.699219 306.570312 Z M 10.699219 0.429688 " clip-rule="nonzero"/></clipPath><clipPath id="2e95f59d89"><path d="M 38 0.429688 L 52 0.429688 L 52 112 L 38 112 Z M 38 0.429688 " clip-rule="nonzero"/></clipPath></defs><g clip-path="url(#6d6203425f)"><path fill="#fdacac" d="M 100.761719 287.089844 L 97.503906 275.882812 C 96.96875 274.015625 96.390625 272.15625 95.894531 270.277344 L 94.425781 264.625 L 91.5 253.324219 L 88.890625 241.945312 L 87.585938 236.253906 L 86.445312 230.527344 L 84.152344 219.074219 L 82.1875 207.558594 L 81.203125 201.800781 L 80.375 196.019531 L 78.734375 184.449219 C 78.25 180.585938 77.855469 176.710938 77.40625 172.84375 C 76.425781 165.113281 75.945312 157.332031 75.246094 149.574219 C 74.242188 134.027344 73.496094 118.453125 73.636719 102.871094 C 73.636719 102.234375 73.097656 101.714844 72.429688 101.714844 L 45.089844 101.621094 C 45.34375 99.578125 45.574219 97.273438 45.785156 94.753906 C 45.867188 93.898438 45.949219 93.015625 46.03125 92.109375 C 46.390625 88.535156 46.71875 84.640625 47.007812 80.511719 C 47.328125 76.417969 47.648438 72.125 47.960938 67.757812 C 48.246094 63.914062 48.515625 60.019531 48.757812 56.148438 C 49.355469 49.492188 49.753906 42.710938 50.214844 36.296875 C 50.757812 29.890625 51.105469 23.824219 51.363281 18.578125 C 52.058594 8.117188 51.898438 0.863281 50.371094 0.613281 C 48.839844 0.363281 46.636719 7.277344 44.324219 17.648438 C 43.257812 22.84375 42.296875 28.917969 41.332031 35.367188 C 40.457031 41.828125 39.84375 48.695312 39.234375 55.449219 C 39.21875 55.742188 39.203125 56.039062 39.183594 56.332031 C 38.980469 59.507812 38.816406 62.703125 38.695312 65.871094 C 38.558594 69.171875 38.453125 72.441406 38.382812 75.625 C 38.386719 77.449219 38.402344 79.230469 38.421875 80.988281 C 38.441406 84.675781 38.53125 88.179688 38.6875 91.421875 C 38.714844 92.144531 38.742188 92.894531 38.773438 93.59375 C 38.855469 94.695312 38.941406 95.75 39.03125 96.773438 C 39.125 97.878906 39.226562 98.9375 39.339844 99.945312 C 39.402344 100.515625 39.464844 101.066406 39.527344 101.601562 L 12.183594 101.507812 C 11.519531 101.507812 10.980469 102.074219 10.980469 102.773438 C 10.839844 119.910156 11.636719 137.039062 12.753906 154.132812 C 13.511719 162.667969 14.058594 171.222656 15.125 179.722656 C 15.617188 183.980469 16.058594 188.242188 16.59375 192.492188 L 18.390625 205.21875 L 19.308594 211.578125 L 20.386719 217.910156 L 22.554688 230.582031 L 25.070312 243.1875 L 26.332031 249.488281 L 27.761719 255.753906 L 30.640625 268.28125 L 33.859375 280.730469 L 35.480469 286.953125 C 36.027344 289.023438 36.660156 291.074219 37.25 293.136719 L 40.84375 305.484375 C 41.039062 306.15625 41.714844 306.542969 42.351562 306.34375 L 99.929688 288.550781 C 100.566406 288.351562 100.9375 287.699219 100.761719 287.089844 Z M 39.238281 90.546875 C 39.152344 88.265625 39.085938 85.8125 39.039062 83.160156 C 39.019531 82.550781 39.011719 81.917969 39.003906 81.289062 C 38.976562 77.78125 39.015625 73.980469 39.136719 69.882812 C 39.289062 65.421875 39.539062 60.628906 39.839844 55.496094 C 42.632812 19.925781 48.789062 0.933594 50.285156 1.214844 C 52.144531 1.53125 50.902344 21.078125 48.15625 56.109375 C 48.148438 56.203125 48.140625 56.296875 48.136719 56.394531 C 47.773438 61.734375 47.425781 66.671875 47.097656 71.273438 C 46.824219 74.808594 46.570312 78.113281 46.359375 81.195312 C 46.066406 84.996094 45.78125 88.453125 45.503906 91.546875 C 45.433594 92.273438 45.363281 92.984375 45.289062 93.667969 C 45.203125 94.703125 45.117188 95.671875 45.03125 96.617188 C 44.84375 98.476562 44.660156 100.117188 44.476562 101.621094 L 40.105469 101.605469 C 40.105469 101.601562 40.105469 101.601562 40.105469 101.601562 C 39.925781 100.054688 39.746094 98.304688 39.582031 96.382812 C 39.445312 94.609375 39.332031 92.632812 39.238281 90.546875 Z M 43.402344 108.359375 C 43.402344 108.359375 43.402344 108.363281 43.402344 108.367188 C 43.398438 108.367188 43.394531 108.363281 43.390625 108.359375 C 43.117188 109.496094 42.84375 110.21875 42.585938 110.535156 C 42.492188 110.636719 42.398438 110.722656 42.300781 110.726562 C 42.300781 110.726562 42.300781 110.722656 42.300781 110.722656 C 41.992188 110.730469 41.613281 109.914062 41.222656 108.367188 C 41.554688 108.226562 41.921875 108.148438 42.304688 108.144531 C 42.695312 108.144531 43.066406 108.21875 43.402344 108.359375 Z M 42.332031 113.910156 C 40.746094 113.9375 39.414062 112.660156 39.429688 111.058594 C 39.429688 110.042969 39.953125 109.148438 40.738281 108.625 C 40.746094 108.648438 40.753906 108.667969 40.761719 108.691406 C 40.867188 109.078125 40.976562 109.417969 41.085938 109.722656 C 41.097656 109.753906 41.109375 109.789062 41.121094 109.816406 C 41.351562 110.433594 41.59375 110.867188 41.84375 111.101562 C 41.871094 111.128906 41.898438 111.152344 41.925781 111.175781 C 42.046875 111.265625 42.171875 111.332031 42.296875 111.328125 C 42.300781 111.328125 42.300781 111.332031 42.300781 111.332031 C 42.304688 111.332031 42.308594 111.328125 42.3125 111.328125 C 42.433594 111.320312 42.554688 111.257812 42.671875 111.167969 C 42.703125 111.144531 42.734375 111.113281 42.769531 111.082031 C 42.882812 110.972656 42.992188 110.832031 43.105469 110.640625 C 43.109375 110.628906 43.117188 110.625 43.121094 110.613281 C 43.238281 110.40625 43.351562 110.140625 43.464844 109.847656 C 43.496094 109.773438 43.523438 109.691406 43.550781 109.609375 C 43.628906 109.394531 43.703125 109.160156 43.773438 108.910156 C 43.804688 108.804688 43.839844 108.722656 43.871094 108.609375 C 43.867188 108.609375 43.867188 108.609375 43.863281 108.605469 C 43.863281 108.605469 43.863281 108.605469 43.863281 108.601562 C 44.652344 109.109375 45.171875 109.988281 45.171875 110.996094 C 45.15625 112.582031 43.917969 113.886719 42.332031 113.910156 Z M 42.332031 113.910156 " fill-opacity="1" fill-rule="nonzero"/></g><g clip-path="url(#2e95f59d89)"><path fill="#d8d8d8" d="M 51.363281 18.578125 C 51.105469 23.824219 50.757812 29.890625 50.214844 36.296875 C 49.753906 42.710938 49.355469 49.492188 48.757812 56.148438 C 48.515625 60.019531 48.246094 63.914062 47.960938 67.757812 C 47.648438 72.125 47.328125 76.417969 47.007812 80.511719 C 46.71875 84.640625 46.390625 88.535156 46.03125 92.109375 C 45.949219 93.015625 45.867188 93.898438 45.785156 94.753906 C 45.574219 97.273438 45.34375 99.578125 45.089844 101.621094 L 44.476562 101.621094 C 44.660156 100.117188 44.84375 98.476562 45.03125 96.617188 C 45.117188 95.671875 45.203125 94.703125 45.289062 93.667969 C 45.363281 92.984375 45.433594 92.273438 45.503906 91.546875 C 45.78125 88.453125 46.066406 84.996094 46.359375 81.195312 C 46.570312 78.113281 46.824219 74.808594 47.097656 71.273438 C 47.425781 66.671875 47.773438 61.734375 48.136719 56.394531 C 48.140625 56.296875 48.148438 56.203125 48.15625 56.109375 C 50.902344 21.078125 52.144531 1.53125 50.285156 1.214844 C 49.910156 1.144531 49.246094 2.28125 48.414062 4.578125 C 48.105469 5.4375 47.765625 6.511719 47.414062 7.695312 C 44.949219 15.996094 41.671875 32.148438 39.839844 55.496094 C 39.539062 60.628906 39.289062 65.421875 39.136719 69.882812 C 39.015625 73.980469 38.976562 77.78125 39.003906 81.289062 C 39.011719 81.917969 39.019531 82.550781 39.039062 83.160156 C 39.085938 85.8125 39.152344 88.265625 39.238281 90.546875 C 39.332031 92.632812 39.445312 94.609375 39.582031 96.382812 C 39.746094 98.304688 39.925781 100.054688 40.105469 101.601562 C 40.105469 101.601562 40.105469 101.601562 40.105469 101.605469 C 40.394531 104.007812 40.691406 105.921875 40.992188 107.378906 C 41.0625 107.730469 41.136719 108.078125 41.207031 108.371094 C 41.210938 108.371094 41.21875 108.371094 41.222656 108.367188 C 41.613281 109.914062 41.992188 110.730469 42.300781 110.722656 C 42.300781 110.722656 42.300781 110.726562 42.300781 110.726562 C 42.304688 110.726562 42.308594 110.722656 42.308594 110.722656 C 42.398438 110.71875 42.492188 110.648438 42.585938 110.535156 C 42.84375 110.21875 43.117188 109.496094 43.390625 108.359375 C 43.394531 108.363281 43.398438 108.367188 43.402344 108.367188 C 43.402344 108.363281 43.402344 108.359375 43.402344 108.359375 C 43.566406 108.425781 43.71875 108.507812 43.863281 108.601562 C 43.863281 108.605469 43.863281 108.605469 43.863281 108.605469 C 43.867188 108.609375 43.867188 108.609375 43.871094 108.609375 C 43.839844 108.722656 43.808594 108.804688 43.773438 108.910156 C 43.703125 109.15625 43.628906 109.398438 43.550781 109.609375 C 43.523438 109.691406 43.496094 109.773438 43.464844 109.847656 C 43.351562 110.140625 43.238281 110.40625 43.121094 110.613281 C 43.117188 110.625 43.109375 110.628906 43.105469 110.640625 C 42.992188 110.832031 42.882812 110.972656 42.769531 111.082031 C 42.734375 111.113281 42.703125 111.144531 42.671875 111.167969 C 42.554688 111.261719 42.433594 111.320312 42.3125 111.328125 C 42.308594 111.328125 42.304688 111.332031 42.300781 111.332031 C 42.300781 111.332031 42.300781 111.328125 42.296875 111.328125 C 42.171875 111.328125 42.046875 111.269531 41.925781 111.175781 C 41.898438 111.152344 41.871094 111.128906 41.84375 111.101562 C 41.59375 110.867188 41.351562 110.433594 41.121094 109.816406 C 41.109375 109.789062 41.097656 109.753906 41.085938 109.722656 C 40.976562 109.421875 40.867188 109.074219 40.761719 108.691406 C 40.753906 108.667969 40.746094 108.648438 40.738281 108.625 C 40.738281 108.625 40.738281 108.625 40.738281 108.621094 C 40.734375 108.613281 40.734375 108.601562 40.730469 108.589844 C 40.289062 106.921875 39.886719 104.535156 39.539062 101.601562 L 39.527344 101.601562 C 39.464844 101.066406 39.402344 100.515625 39.339844 99.945312 C 39.230469 98.9375 39.128906 97.878906 39.03125 96.773438 C 38.941406 95.75 38.855469 94.695312 38.773438 93.59375 C 38.742188 92.894531 38.714844 92.144531 38.6875 91.421875 C 38.53125 88.179688 38.441406 84.675781 38.421875 80.988281 C 38.402344 79.230469 38.386719 77.449219 38.382812 75.625 C 38.453125 72.441406 38.558594 69.171875 38.695312 65.871094 C 38.828125 62.703125 38.992188 59.507812 39.183594 56.332031 C 39.203125 56.039062 39.21875 55.742188 39.234375 55.449219 C 39.84375 48.695312 40.457031 41.828125 41.332031 35.367188 C 42.296875 28.917969 43.257812 22.84375 44.324219 17.648438 C 46.636719 7.277344 48.839844 0.363281 50.371094 0.613281 C 51.898438 0.863281 52.058594 8.117188 51.363281 18.578125 Z M 51.363281 18.578125 " fill-opacity="1" fill-rule="nonzero"/></g></svg>