<svg xmlns="http://www.w3.org/2000/svg" xmlns:xlink="http://www.w3.org/1999/xlink" width="150" zoomAndPan="magnify" viewBox="0 0 112.5 307.500004" height="410" preserveAspectRatio="xMidYMid meet" version="1.0"><defs><clipPath id="91b1435944"><path d="M 23.886719 0.429688 L 88.101562 0.429688 L 88.101562 306.570312 L 23.886719 306.570312 Z M 23.886719 0.429688 " clip-rule="nonzero"/></clipPath><clipPath id="1c9593fcb9"><path d="M 51 0.429688 L 61 0.429688 L 61 114 L 51 114 Z M 51 0.429688 " clip-rule="nonzero"/></clipPath></defs><g clip-path="url(#91b1435944)"><path fill="#ffde83" d="M 86.777344 103.882812 L 58.8125 103.882812 C 60.152344 92.992188 60.851562 74.707031 60.851562 57.113281 C 60.851562 29.636719 59.140625 0.429688 55.972656 0.429688 C 52.800781 0.429688 51.089844 29.636719 51.089844 57.113281 C 51.089844 74.707031 51.792969 92.992188 53.128906 103.882812 L 25.164062 103.882812 C 24.484375 103.882812 23.933594 104.4375 23.933594 105.117188 L 23.933594 305.335938 C 23.933594 306.019531 24.484375 306.570312 25.164062 306.570312 L 86.777344 306.570312 C 87.457031 306.570312 88.011719 306.019531 88.011719 305.335938 L 88.011719 105.117188 C 88.011719 104.4375 87.457031 103.882812 86.777344 103.882812 Z M 53.113281 97.867188 C 52.304688 88.382812 51.710938 74.65625 51.710938 57.117188 C 51.710938 21.011719 54.222656 1.050781 55.972656 1.050781 C 57.710938 1.050781 60.234375 21.011719 60.234375 57.117188 C 60.234375 59.820312 60.222656 62.4375 60.195312 64.960938 C 60.195312 64.96875 60.195312 64.980469 60.195312 64.992188 C 60.179688 66.25 60.164062 67.484375 60.144531 68.695312 C 60.066406 73.523438 59.941406 77.980469 59.777344 82.058594 C 59.773438 82.144531 59.769531 82.230469 59.765625 82.316406 C 59.730469 83.222656 59.691406 84.113281 59.652344 84.984375 C 59.644531 85.089844 59.640625 85.199219 59.636719 85.308594 C 59.59375 86.167969 59.554688 87.007812 59.511719 87.828125 C 59.503906 87.921875 59.5 88.015625 59.496094 88.109375 C 59.402344 89.847656 59.300781 91.496094 59.195312 93.0625 C 59.167969 93.441406 59.144531 93.804688 59.117188 94.171875 C 59.09375 94.507812 59.070312 94.84375 59.042969 95.167969 C 59.007812 95.652344 58.972656 96.128906 58.933594 96.59375 C 58.921875 96.753906 58.910156 96.90625 58.894531 97.0625 C 58.683594 99.636719 58.457031 101.910156 58.21875 103.882812 L 53.722656 103.882812 C 53.628906 103.09375 53.535156 102.253906 53.445312 101.367188 C 53.40625 100.996094 53.367188 100.625 53.328125 100.238281 C 53.316406 100.089844 53.300781 99.933594 53.285156 99.78125 C 53.234375 99.234375 53.183594 98.679688 53.132812 98.101562 C 53.128906 98.023438 53.121094 97.945312 53.113281 97.867188 Z M 57.089844 110.769531 C 57.089844 110.773438 57.089844 110.777344 57.089844 110.777344 C 57.085938 110.777344 57.085938 110.777344 57.082031 110.773438 C 56.800781 111.941406 56.523438 112.679688 56.257812 112.996094 C 56.242188 113.015625 56.226562 113.027344 56.210938 113.042969 C 56.132812 113.121094 56.054688 113.175781 55.980469 113.175781 C 55.976562 113.175781 55.972656 113.179688 55.972656 113.179688 C 55.894531 113.179688 55.8125 113.125 55.734375 113.046875 C 55.714844 113.027344 55.695312 113.011719 55.675781 112.988281 C 55.597656 112.894531 55.519531 112.769531 55.441406 112.605469 C 55.421875 112.566406 55.402344 112.515625 55.382812 112.472656 C 55.308594 112.308594 55.238281 112.117188 55.164062 111.894531 C 55.152344 111.855469 55.140625 111.824219 55.128906 111.785156 C 55.035156 111.492188 54.945312 111.160156 54.851562 110.773438 C 54.851562 110.773438 54.851562 110.773438 54.851562 110.769531 C 55.195312 110.628906 55.574219 110.546875 55.972656 110.546875 C 56.367188 110.546875 56.746094 110.628906 57.089844 110.769531 Z M 55.972656 116.429688 C 54.347656 116.429688 53.035156 115.113281 53.035156 113.488281 C 53.035156 112.457031 53.566406 111.550781 54.371094 111.027344 C 54.378906 111.050781 54.386719 111.066406 54.390625 111.089844 C 54.503906 111.488281 54.617188 111.839844 54.730469 112.15625 C 54.742188 112.183594 54.75 112.210938 54.761719 112.238281 C 54.996094 112.871094 55.246094 113.316406 55.503906 113.558594 C 55.53125 113.585938 55.558594 113.609375 55.585938 113.632812 C 55.714844 113.730469 55.839844 113.796875 55.972656 113.796875 C 55.976562 113.796875 55.980469 113.792969 55.984375 113.792969 C 56.109375 113.789062 56.230469 113.726562 56.351562 113.636719 C 56.382812 113.609375 56.414062 113.582031 56.449219 113.550781 C 56.5625 113.4375 56.679688 113.292969 56.789062 113.101562 C 56.796875 113.089844 56.804688 113.085938 56.808594 113.074219 C 56.929688 112.863281 57.042969 112.597656 57.160156 112.300781 C 57.191406 112.21875 57.222656 112.128906 57.253906 112.039062 C 57.328125 111.828125 57.402344 111.59375 57.476562 111.34375 C 57.507812 111.234375 57.542969 111.152344 57.574219 111.035156 C 57.570312 111.03125 57.570312 111.03125 57.566406 111.03125 C 57.566406 111.027344 57.566406 111.027344 57.570312 111.023438 C 58.375 111.550781 58.90625 112.453125 58.90625 113.488281 C 58.90625 115.113281 57.59375 116.429688 55.972656 116.429688 Z M 55.972656 116.429688 " fill-opacity="1" fill-rule="nonzero"/></g><g clip-path="url(#1c9593fcb9)"><path fill="#d8d8d8" d="M 60.851562 57.113281 C 60.851562 74.707031 60.152344 92.992188 58.8125 103.882812 L 58.21875 103.882812 C 58.457031 101.910156 58.683594 99.636719 58.894531 97.0625 C 58.910156 96.910156 58.921875 96.753906 58.933594 96.59375 C 58.972656 96.128906 59.007812 95.652344 59.042969 95.167969 C 59.070312 94.84375 59.09375 94.507812 59.117188 94.171875 C 59.144531 93.804688 59.167969 93.441406 59.195312 93.0625 C 59.300781 91.5 59.402344 89.847656 59.496094 88.109375 C 59.5 88.015625 59.503906 87.921875 59.511719 87.828125 C 59.554688 87.007812 59.59375 86.167969 59.636719 85.308594 C 59.640625 85.199219 59.644531 85.089844 59.652344 84.984375 C 59.691406 84.113281 59.730469 83.222656 59.765625 82.316406 C 59.769531 82.230469 59.773438 82.144531 59.777344 82.058594 C 59.898438 79.011719 60 75.753906 60.074219 72.289062 C 60.101562 71.113281 60.125 69.917969 60.144531 68.695312 C 60.164062 67.484375 60.179688 66.25 60.195312 64.992188 C 60.195312 64.980469 60.195312 64.96875 60.195312 64.960938 C 60.222656 62.4375 60.234375 59.820312 60.234375 57.117188 C 60.234375 21.011719 57.710938 1.050781 55.972656 1.050781 C 54.222656 1.050781 51.710938 21.011719 51.710938 57.117188 C 51.710938 74.65625 52.304688 88.382812 53.113281 97.867188 C 53.121094 97.945312 53.128906 98.023438 53.132812 98.101562 C 53.183594 98.679688 53.234375 99.234375 53.285156 99.78125 C 53.300781 99.933594 53.316406 100.089844 53.328125 100.238281 C 53.367188 100.625 53.40625 100.996094 53.445312 101.367188 C 53.535156 102.253906 53.628906 103.09375 53.722656 103.882812 L 53.71875 103.882812 C 53.742188 104.078125 53.765625 104.242188 53.789062 104.429688 C 53.847656 104.890625 53.90625 105.34375 53.964844 105.769531 C 53.980469 105.875 53.992188 105.988281 54.007812 106.09375 C 54.09375 106.699219 54.179688 107.265625 54.265625 107.792969 C 54.277344 107.855469 54.285156 107.914062 54.296875 107.976562 C 54.453125 108.925781 54.613281 109.722656 54.773438 110.414062 C 54.796875 110.527344 54.824219 110.664062 54.851562 110.769531 C 54.851562 110.773438 54.851562 110.773438 54.851562 110.773438 C 54.945312 111.160156 55.035156 111.492188 55.128906 111.785156 C 55.140625 111.824219 55.152344 111.855469 55.164062 111.894531 C 55.238281 112.117188 55.308594 112.308594 55.382812 112.472656 C 55.402344 112.515625 55.421875 112.566406 55.441406 112.605469 C 55.519531 112.769531 55.597656 112.894531 55.675781 112.988281 C 55.695312 113.011719 55.714844 113.027344 55.734375 113.046875 C 55.8125 113.125 55.894531 113.179688 55.972656 113.179688 C 55.972656 113.179688 55.976562 113.175781 55.980469 113.175781 C 56.054688 113.171875 56.132812 113.121094 56.210938 113.042969 C 56.226562 113.027344 56.242188 113.015625 56.257812 112.996094 C 56.523438 112.679688 56.800781 111.941406 57.082031 110.773438 C 57.085938 110.777344 57.085938 110.777344 57.089844 110.777344 C 57.089844 110.777344 57.089844 110.773438 57.089844 110.769531 C 57.257812 110.839844 57.417969 110.925781 57.570312 111.023438 C 57.566406 111.027344 57.566406 111.027344 57.566406 111.03125 C 57.570312 111.03125 57.570312 111.03125 57.574219 111.035156 C 57.542969 111.152344 57.507812 111.234375 57.476562 111.34375 C 57.402344 111.589844 57.328125 111.828125 57.253906 112.039062 C 57.222656 112.128906 57.191406 112.21875 57.160156 112.300781 C 57.042969 112.597656 56.929688 112.863281 56.808594 113.074219 C 56.804688 113.085938 56.796875 113.089844 56.789062 113.101562 C 56.679688 113.296875 56.5625 113.4375 56.449219 113.550781 C 56.414062 113.582031 56.382812 113.609375 56.351562 113.636719 C 56.230469 113.726562 56.109375 113.789062 55.984375 113.792969 C 55.980469 113.792969 55.976562 113.796875 55.972656 113.796875 C 55.839844 113.796875 55.710938 113.730469 55.585938 113.632812 C 55.558594 113.609375 55.53125 113.585938 55.503906 113.558594 C 55.246094 113.316406 54.996094 112.871094 54.757812 112.238281 C 54.75 112.210938 54.742188 112.183594 54.730469 112.15625 C 54.617188 111.84375 54.503906 111.484375 54.390625 111.089844 C 54.386719 111.066406 54.378906 111.050781 54.371094 111.027344 C 54.371094 111.023438 54.371094 111.023438 54.371094 111.023438 C 54.367188 111.011719 54.367188 111 54.363281 110.988281 C 54.253906 110.574219 54.144531 110.117188 54.039062 109.617188 C 54.035156 109.609375 54.035156 109.601562 54.03125 109.589844 C 53.707031 108.050781 53.40625 106.121094 53.140625 103.882812 L 53.128906 103.882812 C 51.792969 92.992188 51.089844 74.707031 51.089844 57.113281 C 51.089844 29.636719 52.800781 0.429688 55.972656 0.429688 C 59.140625 0.429688 60.851562 29.636719 60.851562 57.113281 Z M 60.851562 57.113281 " fill-opacity="1" fill-rule="nonzero"/></g></svg>