<svg xmlns="http://www.w3.org/2000/svg" xmlns:xlink="http://www.w3.org/1999/xlink" width="150" zoomAndPan="magnify" viewBox="0 0 112.5 307.500004" height="410" preserveAspectRatio="xMidYMid meet" version="1.0"><defs><clipPath id="0539c06c92"><path d="M 11.199219 1 L 101.546875 1 L 101.546875 306.570312 L 11.199219 306.570312 Z M 11.199219 1 " clip-rule="nonzero"/></clipPath></defs><g clip-path="url(#0539c06c92)"><path fill="#79eaf5" d="M 101.253906 280.355469 C 89.199219 253.3125 81.023438 224.441406 76.957031 195.015625 C 74.925781 180.300781 73.914062 165.445312 73.949219 150.605469 C 73.976562 143.1875 74.25 135.773438 74.789062 128.382812 L 75.25 122.84375 L 75.476562 120.074219 L 75.800781 117.316406 L 76.457031 111.804688 L 76.78125 109.046875 L 77.1875 106.207031 C 77.277344 105.589844 76.816406 105.011719 76.15625 104.914062 L 49.058594 100.980469 C 49.675781 98.726562 50.328125 96.140625 51.003906 93.273438 C 52.199219 88.160156 53.484375 82.199219 54.617188 75.785156 C 54.664062 75.539062 54.703125 75.28125 54.746094 75.035156 C 54.75 75.011719 54.753906 74.988281 54.757812 74.964844 C 55.117188 72.929688 55.449219 70.851562 55.761719 68.746094 C 55.765625 68.722656 55.769531 68.699219 55.773438 68.675781 C 56.082031 66.585938 56.367188 64.472656 56.613281 62.339844 C 56.621094 62.289062 56.628906 62.238281 56.632812 62.1875 C 56.882812 60.023438 57.109375 57.851562 57.28125 55.671875 C 57.597656 52.257812 57.675781 48.769531 57.773438 45.328125 C 57.714844 41.863281 57.71875 38.445312 57.375 35.101562 C 57.183594 31.761719 56.605469 28.523438 56.132812 25.464844 C 55.832031 23.9375 55.457031 22.457031 55.125 21.027344 C 54.949219 20.316406 54.78125 19.613281 54.613281 18.921875 C 54.433594 18.234375 54.1875 17.574219 53.976562 16.921875 C 53.113281 14.316406 52.324219 11.933594 51.296875 9.925781 C 50.332031 7.902344 49.519531 6.140625 48.546875 4.820312 C 46.71875 2.128906 45.378906 0.789062 44.6875 1.132812 C 43.183594 1.890625 45.542969 8.582031 47.058594 18.542969 C 47.152344 19.167969 47.292969 19.789062 47.367188 20.441406 C 47.4375 21.09375 47.503906 21.757812 47.578125 22.433594 C 47.714844 23.78125 47.902344 25.15625 48.039062 26.582031 C 48.175781 29.457031 48.472656 32.4375 48.449219 35.558594 C 48.574219 38.65625 48.410156 41.875 48.371094 45.113281 C 48.175781 48.367188 48.054688 51.644531 47.75 54.921875 C 47.738281 55.082031 47.71875 55.242188 47.707031 55.402344 C 47.238281 61.21875 46.597656 67.125 45.960938 72.828125 C 45.898438 73.386719 45.835938 73.953125 45.769531 74.507812 C 45.515625 76.796875 45.269531 79.023438 45.035156 81.210938 C 44.972656 81.769531 44.910156 82.332031 44.855469 82.886719 C 44.78125 83.578125 44.710938 84.257812 44.644531 84.9375 C 44.601562 85.339844 44.5625 85.734375 44.523438 86.128906 C 44.375 87.648438 44.238281 89.125 44.121094 90.546875 C 44.105469 90.695312 44.09375 90.84375 44.082031 90.988281 C 44.050781 91.378906 44.007812 91.796875 43.980469 92.179688 C 43.746094 95.132812 43.605469 97.820312 43.550781 100.179688 L 16.457031 96.246094 C 15.796875 96.152344 15.179688 96.640625 15.078125 97.339844 L 14.621094 100.554688 L 14.222656 103.871094 L 13.433594 110.503906 L 13.050781 113.824219 L 12.769531 117.148438 L 12.21875 123.800781 C 11.570312 132.675781 11.242188 141.570312 11.210938 150.460938 C 11.167969 168.242188 12.378906 186.007812 14.8125 203.605469 C 19.675781 238.792969 29.4375 273.324219 43.949219 305.882812 C 44.234375 306.550781 44.960938 306.871094 45.570312 306.597656 L 100.582031 281.855469 C 101.191406 281.582031 101.492188 280.910156 101.253906 280.355469 Z M 44.128906 100.019531 C 44.132812 99.839844 44.140625 99.648438 44.144531 99.464844 C 44.1875 98.144531 44.253906 96.710938 44.359375 95.140625 C 44.425781 94.058594 44.511719 92.90625 44.605469 91.710938 C 44.625 91.453125 44.648438 91.1875 44.671875 90.925781 C 44.761719 89.847656 44.855469 88.738281 44.96875 87.574219 C 44.984375 87.386719 45.003906 87.195312 45.019531 87.007812 C 45.136719 85.800781 45.265625 84.546875 45.402344 83.25 C 45.421875 83.03125 45.445312 82.816406 45.46875 82.597656 C 45.625 81.121094 45.792969 79.597656 45.972656 78.011719 C 46.109375 76.761719 46.257812 75.441406 46.40625 74.125 C 46.859375 70.164062 47.339844 65.902344 47.78125 61.347656 C 47.785156 61.28125 47.792969 61.214844 47.800781 61.148438 C 47.992188 59.140625 48.179688 57.089844 48.351562 54.96875 C 49.046875 46.347656 49.207031 38.742188 48.972656 32.175781 C 48.738281 28.914062 48.636719 25.871094 48.242188 23.136719 C 48.0625 21.765625 48.015625 20.425781 47.769531 19.199219 C 47.5625 17.960938 47.371094 16.785156 47.1875 15.675781 C 47.101562 15.113281 47.019531 14.570312 46.9375 14.042969 C 46.839844 13.523438 46.710938 13.027344 46.609375 12.539062 C 46.402344 11.5625 46.210938 10.652344 46.035156 9.808594 C 45.855469 8.960938 45.746094 8.15625 45.574219 7.449219 C 45.390625 6.746094 45.238281 6.101562 45.109375 5.519531 C 44.605469 3.195312 44.542969 1.875 44.925781 1.691406 C 45.3125 1.503906 46.230469 2.414062 47.636719 4.453125 C 47.988281 4.960938 48.371094 5.539062 48.78125 6.191406 C 48.828125 6.265625 48.871094 6.355469 48.917969 6.433594 C 49.261719 7.035156 49.574219 7.699219 49.9375 8.417969 C 50.328125 9.246094 50.746094 10.140625 51.199219 11.097656 C 51.417969 11.578125 51.65625 12.078125 51.871094 12.601562 C 52.058594 13.132812 52.25 13.683594 52.449219 14.25 C 52.835938 15.390625 53.246094 16.601562 53.675781 17.878906 C 54.132812 19.15625 54.378906 20.542969 54.75 21.984375 C 55.523438 24.875 55.960938 28.082031 56.472656 31.570312 C 57.257812 38.550781 57.398438 46.660156 56.671875 55.628906 C 56.566406 56.96875 56.445312 58.28125 56.3125 59.566406 C 56.308594 59.605469 56.304688 59.640625 56.300781 59.675781 C 56.183594 60.851562 56.050781 62.003906 55.917969 63.136719 C 55.890625 63.367188 55.859375 63.59375 55.832031 63.820312 C 55.71875 64.757812 55.597656 65.675781 55.472656 66.582031 C 55.433594 66.867188 55.394531 67.152344 55.355469 67.433594 C 55.226562 68.351562 55.09375 69.253906 54.957031 70.140625 C 54.925781 70.328125 54.898438 70.519531 54.871094 70.703125 C 54.164062 75.214844 53.382812 79.328125 52.636719 83.054688 C 52.484375 83.816406 52.328125 84.550781 52.175781 85.28125 C 52.046875 85.898438 51.917969 86.5 51.789062 87.089844 C 51.628906 87.84375 51.46875 88.582031 51.308594 89.300781 C 51.117188 90.144531 50.933594 90.972656 50.75 91.761719 C 50.667969 92.113281 50.589844 92.464844 50.507812 92.800781 C 50.292969 93.71875 50.085938 94.59375 49.878906 95.4375 C 49.746094 95.980469 49.617188 96.503906 49.488281 97.015625 C 49.132812 98.425781 48.796875 99.71875 48.480469 100.894531 L 44.121094 100.261719 C 44.125 100.179688 44.125 100.101562 44.128906 100.019531 Z M 46.496094 107.390625 C 46.480469 107.421875 46.46875 107.457031 46.460938 107.484375 C 46.355469 107.761719 46.253906 108.003906 46.15625 108.226562 C 46.105469 108.34375 46.054688 108.445312 46.007812 108.546875 C 45.9375 108.6875 45.875 108.8125 45.808594 108.925781 C 45.773438 108.988281 45.738281 109.054688 45.703125 109.109375 C 45.613281 109.25 45.523438 109.359375 45.441406 109.4375 C 45.417969 109.457031 45.398438 109.472656 45.375 109.488281 C 45.289062 109.554688 45.207031 109.597656 45.128906 109.589844 C 45.128906 109.589844 45.125 109.585938 45.121094 109.585938 C 45.046875 109.574219 44.976562 109.515625 44.910156 109.429688 C 44.898438 109.414062 44.886719 109.398438 44.875 109.382812 C 44.652344 109.042969 44.464844 108.289062 44.328125 107.117188 C 44.328125 107.117188 44.324219 107.121094 44.320312 107.121094 C 44.320312 107.117188 44.320312 107.113281 44.320312 107.113281 C 44.671875 107.015625 45.046875 106.984375 45.433594 107.035156 C 45.820312 107.085938 46.175781 107.210938 46.496094 107.390625 Z M 44.753906 112.746094 C 43.175781 112.570312 42.050781 111.136719 42.238281 109.542969 C 42.359375 108.53125 42.984375 107.710938 43.828125 107.300781 C 43.828125 107.300781 43.828125 107.304688 43.828125 107.304688 C 43.828125 107.304688 43.824219 107.304688 43.820312 107.308594 C 43.839844 107.425781 43.863281 107.511719 43.882812 107.625 C 43.921875 107.875 43.96875 108.109375 44.015625 108.328125 C 44.035156 108.417969 44.054688 108.507812 44.078125 108.59375 C 44.152344 108.894531 44.234375 109.167969 44.328125 109.386719 C 44.332031 109.398438 44.339844 109.40625 44.34375 109.417969 C 44.429688 109.617188 44.523438 109.769531 44.625 109.894531 C 44.652344 109.925781 44.679688 109.960938 44.707031 109.988281 C 44.816406 110.089844 44.925781 110.167969 45.046875 110.183594 C 45.050781 110.183594 45.054688 110.1875 45.058594 110.1875 C 45.058594 110.191406 45.058594 110.1875 45.0625 110.1875 C 45.1875 110.203125 45.316406 110.152344 45.449219 110.074219 C 45.480469 110.058594 45.511719 110.035156 45.539062 110.015625 C 45.820312 109.808594 46.113281 109.40625 46.414062 108.820312 C 46.429688 108.796875 46.441406 108.773438 46.453125 108.75 C 46.601562 108.457031 46.753906 108.128906 46.90625 107.753906 C 46.914062 107.734375 46.921875 107.71875 46.933594 107.699219 C 47.652344 108.304688 48.066406 109.242188 47.949219 110.234375 C 47.765625 111.796875 46.332031 112.921875 44.753906 112.746094 Z M 44.753906 112.746094 " fill-opacity="1" fill-rule="nonzero"/></g><path fill="#d8d8d8" d="M 57.773438 45.328125 C 57.675781 48.769531 57.597656 52.257812 57.28125 55.671875 C 57.109375 57.851562 56.882812 60.023438 56.632812 62.1875 C 56.628906 62.238281 56.621094 62.289062 56.613281 62.339844 C 56.363281 64.46875 56.082031 66.585938 55.773438 68.675781 C 55.769531 68.699219 55.765625 68.722656 55.761719 68.746094 C 55.449219 70.851562 55.113281 72.929688 54.757812 74.964844 C 54.753906 74.988281 54.75 75.011719 54.746094 75.035156 C 54.703125 75.28125 54.664062 75.539062 54.617188 75.785156 C 53.484375 82.199219 52.199219 88.160156 51.003906 93.273438 C 50.328125 96.140625 49.675781 98.726562 49.058594 100.980469 L 49.050781 100.976562 C 48.667969 102.394531 48.292969 103.675781 47.925781 104.800781 C 47.582031 105.917969 47.261719 106.878906 46.941406 107.667969 C 46.941406 107.675781 46.9375 107.6875 46.933594 107.695312 C 46.933594 107.695312 46.933594 107.699219 46.933594 107.699219 C 46.921875 107.71875 46.914062 107.734375 46.90625 107.753906 C 46.753906 108.125 46.601562 108.460938 46.453125 108.75 C 46.441406 108.773438 46.429688 108.796875 46.414062 108.820312 C 46.113281 109.402344 45.820312 109.808594 45.539062 110.011719 C 45.507812 110.035156 45.480469 110.058594 45.449219 110.074219 C 45.316406 110.15625 45.1875 110.203125 45.0625 110.1875 C 45.058594 110.1875 45.058594 110.1875 45.058594 110.1875 C 45.054688 110.1875 45.050781 110.183594 45.046875 110.183594 C 44.925781 110.167969 44.816406 110.09375 44.707031 109.988281 C 44.679688 109.960938 44.652344 109.925781 44.625 109.894531 C 44.523438 109.769531 44.429688 109.621094 44.34375 109.417969 C 44.339844 109.40625 44.332031 109.398438 44.328125 109.386719 C 44.238281 109.167969 44.15625 108.894531 44.078125 108.59375 C 44.054688 108.507812 44.035156 108.417969 44.015625 108.328125 C 43.96875 108.113281 43.925781 107.871094 43.882812 107.625 C 43.863281 107.511719 43.839844 107.425781 43.820312 107.308594 C 43.824219 107.304688 43.828125 107.304688 43.828125 107.304688 C 43.828125 107.304688 43.828125 107.300781 43.828125 107.300781 C 43.984375 107.222656 44.148438 107.160156 44.320312 107.113281 C 44.320312 107.113281 44.320312 107.117188 44.320312 107.121094 C 44.324219 107.121094 44.328125 107.117188 44.328125 107.117188 C 44.464844 108.289062 44.652344 109.042969 44.875 109.382812 C 44.886719 109.398438 44.898438 109.414062 44.910156 109.429688 C 44.976562 109.515625 45.046875 109.574219 45.121094 109.585938 C 45.125 109.585938 45.128906 109.589844 45.128906 109.589844 C 45.207031 109.597656 45.289062 109.554688 45.375 109.488281 C 45.398438 109.472656 45.417969 109.457031 45.441406 109.4375 C 45.523438 109.359375 45.613281 109.25 45.703125 109.109375 C 45.738281 109.054688 45.773438 108.984375 45.808594 108.925781 C 45.875 108.8125 45.9375 108.6875 46.003906 108.546875 C 46.054688 108.445312 46.105469 108.34375 46.15625 108.226562 C 46.253906 108.007812 46.355469 107.757812 46.457031 107.484375 C 46.46875 107.457031 46.480469 107.421875 46.496094 107.390625 C 46.496094 107.394531 46.496094 107.394531 46.496094 107.394531 C 46.503906 107.371094 46.515625 107.335938 46.523438 107.3125 C 47 106.003906 47.582031 104.109375 48.265625 101.6875 C 48.339844 101.421875 48.410156 101.179688 48.488281 100.898438 L 48.480469 100.894531 C 48.796875 99.71875 49.132812 98.421875 49.488281 97.015625 C 49.617188 96.503906 49.746094 95.980469 49.878906 95.4375 C 50.085938 94.59375 50.292969 93.71875 50.507812 92.800781 C 50.589844 92.464844 50.667969 92.113281 50.75 91.761719 C 50.933594 90.972656 51.117188 90.144531 51.308594 89.300781 C 51.46875 88.582031 51.628906 87.84375 51.789062 87.089844 C 51.917969 86.5 52.046875 85.898438 52.175781 85.28125 C 52.335938 84.527344 52.496094 83.75 52.65625 82.96875 C 53.1875 80.304688 53.738281 77.4375 54.265625 74.375 C 54.46875 73.175781 54.671875 71.964844 54.871094 70.703125 C 54.898438 70.519531 54.925781 70.328125 54.957031 70.140625 C 55.09375 69.253906 55.226562 68.351562 55.355469 67.433594 C 55.394531 67.152344 55.433594 66.867188 55.472656 66.582031 C 55.597656 65.675781 55.71875 64.757812 55.832031 63.820312 C 55.859375 63.59375 55.890625 63.367188 55.917969 63.136719 C 56.050781 62.003906 56.183594 60.851562 56.300781 59.675781 C 56.304688 59.640625 56.308594 59.605469 56.3125 59.566406 C 56.445312 58.28125 56.566406 56.96875 56.671875 55.628906 C 57.398438 46.660156 57.257812 38.550781 56.472656 31.570312 C 55.960938 28.082031 55.523438 24.875 54.75 21.984375 C 54.378906 20.542969 54.132812 19.15625 53.675781 17.878906 C 53.246094 16.601562 52.835938 15.390625 52.449219 14.25 C 52.25 13.683594 52.058594 13.132812 51.871094 12.601562 C 51.65625 12.078125 51.417969 11.578125 51.199219 11.097656 C 50.746094 10.140625 50.328125 9.246094 49.9375 8.417969 C 49.574219 7.699219 49.261719 7.035156 48.917969 6.433594 C 48.871094 6.355469 48.828125 6.265625 48.78125 6.191406 C 48.78125 6.191406 48.78125 6.1875 48.78125 6.1875 C 48.371094 5.539062 47.988281 4.960938 47.636719 4.453125 C 46.230469 2.414062 45.3125 1.503906 44.925781 1.691406 C 44.542969 1.875 44.605469 3.195312 45.109375 5.519531 C 45.238281 6.101562 45.390625 6.746094 45.574219 7.449219 C 45.746094 8.15625 45.855469 8.960938 46.035156 9.808594 C 46.210938 10.652344 46.402344 11.5625 46.609375 12.539062 C 46.710938 13.027344 46.839844 13.523438 46.9375 14.042969 C 47.019531 14.570312 47.101562 15.113281 47.1875 15.675781 C 47.371094 16.785156 47.5625 17.960938 47.769531 19.199219 C 48.015625 20.425781 48.0625 21.765625 48.242188 23.136719 C 48.636719 25.871094 48.738281 28.914062 48.972656 32.175781 C 49.207031 38.742188 49.046875 46.347656 48.351562 54.96875 C 48.179688 57.089844 47.992188 59.140625 47.800781 61.148438 C 47.792969 61.214844 47.785156 61.28125 47.78125 61.347656 C 47.339844 65.902344 46.859375 70.164062 46.40625 74.125 C 46.257812 75.441406 46.109375 76.761719 45.972656 78.011719 C 45.792969 79.597656 45.625 81.121094 45.46875 82.597656 C 45.445312 82.816406 45.421875 83.03125 45.398438 83.25 C 45.265625 84.546875 45.136719 85.800781 45.019531 87.007812 C 45.003906 87.195312 44.984375 87.386719 44.96875 87.574219 C 44.855469 88.738281 44.761719 89.847656 44.671875 90.925781 C 44.648438 91.1875 44.625 91.453125 44.605469 91.710938 C 44.515625 92.863281 44.433594 93.964844 44.367188 95.011719 C 44.363281 95.09375 44.355469 95.175781 44.351562 95.257812 C 44.316406 95.824219 44.285156 96.363281 44.257812 96.898438 C 44.246094 97.117188 44.230469 97.347656 44.222656 97.5625 C 44.191406 98.21875 44.164062 98.855469 44.144531 99.464844 C 44.140625 99.648438 44.132812 99.839844 44.128906 100.019531 C 44.125 100.101562 44.125 100.179688 44.121094 100.261719 L 43.550781 100.179688 C 43.605469 97.820312 43.746094 95.132812 43.980469 92.179688 C 44.007812 91.796875 44.050781 91.378906 44.082031 90.988281 C 44.09375 90.84375 44.105469 90.695312 44.121094 90.546875 C 44.238281 89.125 44.375 87.648438 44.523438 86.128906 C 44.5625 85.734375 44.601562 85.339844 44.644531 84.9375 C 44.710938 84.257812 44.78125 83.578125 44.855469 82.886719 C 44.914062 82.335938 44.972656 81.769531 45.035156 81.210938 C 45.085938 80.730469 45.136719 80.253906 45.191406 79.765625 C 45.265625 79.058594 45.351562 78.316406 45.429688 77.597656 C 45.542969 76.566406 45.652344 75.5625 45.769531 74.507812 C 45.835938 73.953125 45.898438 73.386719 45.960938 72.828125 C 46.597656 67.125 47.238281 61.21875 47.707031 55.402344 C 47.71875 55.242188 47.738281 55.082031 47.75 54.921875 C 48.054688 51.644531 48.175781 48.367188 48.371094 45.113281 C 48.410156 41.875 48.574219 38.65625 48.449219 35.558594 C 48.472656 32.4375 48.175781 29.457031 48.039062 26.582031 C 47.902344 25.15625 47.714844 23.78125 47.578125 22.429688 C 47.503906 21.757812 47.4375 21.09375 47.367188 20.441406 C 47.292969 19.789062 47.152344 19.167969 47.058594 18.542969 C 45.542969 8.582031 43.183594 1.890625 44.683594 1.132812 C 45.378906 0.789062 46.71875 2.128906 48.546875 4.820312 C 49.519531 6.140625 50.332031 7.902344 51.296875 9.925781 C 52.324219 11.933594 53.113281 14.316406 53.976562 16.921875 C 54.183594 17.574219 54.433594 18.234375 54.613281 18.921875 C 54.78125 19.613281 54.949219 20.3125 55.125 21.027344 C 55.457031 22.457031 55.832031 23.9375 56.132812 25.464844 C 56.605469 28.523438 57.183594 31.761719 57.375 35.101562 C 57.71875 38.445312 57.714844 41.863281 57.773438 45.328125 Z M 57.773438 45.328125 " fill-opacity="1" fill-rule="nonzero"/></svg>